<svg xmlns="http://www.w3.org/2000/svg" viewBox="0 0 100 100">
  <defs>
    <linearGradient id="geoBg" x1="0%" y1="0%" x2="0%" y2="100%">
      <stop offset="0%" stop-color="#0D1218"/>
      <stop offset="50%" stop-color="#121820"/>
      <stop offset="100%" stop-color="#0F1520"/>
    </linearGradient>
    <radialGradient id="geoGlow1" cx="30%" cy="30%">
      <stop offset="0%" stop-color="rgba(80,140,200,0.12)"/>
      <stop offset="100%" stop-color="transparent"/>
    </radialGradient>
    <radialGradient id="geoGlow2" cx="70%" cy="70%">
      <stop offset="0%" stop-color="rgba(140,100,180,0.1)"/>
      <stop offset="100%" stop-color="transparent"/>
    </radialGradient>
  </defs>
  <rect fill="url(#geoBg)" width="100" height="100"/>
  <rect fill="url(#geoGlow1)" width="100" height="100"/>
  <rect fill="url(#geoGlow2)" width="100" height="100"/>
  <!-- Hexagons -->
  <polygon points="20,15 28,10 36,15 36,25 28,30 20,25" fill="rgba(100,140,180,0.1)" stroke="rgba(100,140,180,0.2)" stroke-width="0.5"/>
  <polygon points="70,35 78,30 86,35 86,45 78,50 70,45" fill="rgba(100,140,180,0.08)" stroke="rgba(100,140,180,0.15)" stroke-width="0.5"/>
  <polygon points="30,65 38,60 46,65 46,75 38,80 30,75" fill="rgba(100,140,180,0.12)" stroke="rgba(100,140,180,0.2)" stroke-width="0.5"/>
  <polygon points="60,80 68,75 76,80 76,90 68,95 60,90" fill="rgba(100,140,180,0.07)" stroke="rgba(100,140,180,0.12)" stroke-width="0.5"/>
  <!-- Triangles -->
  <polygon points="50,8 58,22 42,22" fill="rgba(140,100,180,0.08)" stroke="rgba(140,100,180,0.15)" stroke-width="0.5"/>
  <polygon points="75,60 83,74 67,74" fill="rgba(140,100,180,0.06)" stroke="rgba(140,100,180,0.12)" stroke-width="0.5"/>
  <!-- Lines -->
  <line x1="15" y1="45" x2="45" y2="55" stroke="rgba(100,140,180,0.1)" stroke-width="0.5"/>
  <line x1="55" y1="25" x2="85" y2="15" stroke="rgba(140,100,180,0.08)" stroke-width="0.5"/>
</svg>
