<svg xmlns="http://www.w3.org/2000/svg" xmlns:xlink="http://www.w3.org/1999/xlink" width="235" height="214.3" viewBox="0 0 235 214.3">
  <defs>
    <linearGradient id="ef644e02-570b-402d-858c-3e4387b4b277" x1="9.32" y1="15.67" x2="181.76" y2="118.33" gradientUnits="userSpaceOnUse">
      <stop offset="0" stop-color="#e0a47f"/>
      <stop offset="0.07" stop-color="#ca8861"/>
      <stop offset="0.18" stop-color="#ad6137"/>
      <stop offset="0.27" stop-color="#9b491d"/>
      <stop offset="0.32" stop-color="#944014"/>
      <stop offset="0.4" stop-color="#974317"/>
      <stop offset="0.47" stop-color="#9f4e21"/>
      <stop offset="0.54" stop-color="#ad6032"/>
      <stop offset="0.6" stop-color="#c07949"/>
      <stop offset="0.66" stop-color="#d99a67"/>
      <stop offset="0.72" stop-color="#f7c18b"/>
      <stop offset="0.73" stop-color="#fecb94"/>
      <stop offset="0.85" stop-color="#c68b5c"/>
      <stop offset="1" stop-color="#833d19"/>
    </linearGradient>
  </defs>
  <g id="ef8beb53-9b60-44fd-9131-60d0117cbe69" data-name="TON">
    <path d="M230.6,44.7,128.2,207.9a13.9,13.9,0,0,1-19.1,4.3,13.2,13.2,0,0,1-4.4-4.4L4.3,44.7A29.4,29.4,0,0,1,0,29.5,29.9,29.9,0,0,1,30.4,0H204.8C221.5,0,235,13.1,235,29.4a28.6,28.6,0,0,1-4.4,15.3M29,39.3l74.7,115.2V27.7H36.8c-7.8,0-11.2,5.1-7.8,11.6M131.3,154.5,206.1,39.3c3.4-6.5-.1-11.6-7.9-11.6H131.3Z" style="fill: url(#ef644e02-570b-402d-858c-3e4387b4b277)"/>
  </g>
</svg>
