<svg xmlns="http://www.w3.org/2000/svg" xmlns:xlink="http://www.w3.org/1999/xlink" width="235" height="214.3" viewBox="0 0 235 214.3">
  <defs>
    <linearGradient id="ea525a05-2ca4-451e-9bd1-a9f1b75f47b8" x1="9.32" y1="15.67" x2="185.37" y2="120.48" gradientUnits="userSpaceOnUse">
      <stop offset="0" stop-color="#ee1a00"/>
      <stop offset="0.1" stop-color="#ee1c02"/>
      <stop offset="0.15" stop-color="#ef2307"/>
      <stop offset="0.18" stop-color="#f13010"/>
      <stop offset="0.21" stop-color="#f3421e"/>
      <stop offset="0.23" stop-color="#f6592f"/>
      <stop offset="0.25" stop-color="#fa7545"/>
      <stop offset="0.27" stop-color="#fe965e"/>
      <stop offset="0.27" stop-color="#ff9b61"/>
      <stop offset="0.31" stop-color="#ff9363"/>
      <stop offset="0.37" stop-color="#ff7c67"/>
      <stop offset="0.45" stop-color="#ff566f"/>
      <stop offset="0.54" stop-color="#ff2379"/>
      <stop offset="0.58" stop-color="#ff087e"/>
      <stop offset="0.59" stop-color="#ff0e81"/>
      <stop offset="0.6" stop-color="#ff208a"/>
      <stop offset="0.62" stop-color="#ff3d9a"/>
      <stop offset="0.63" stop-color="#ff65af"/>
      <stop offset="0.65" stop-color="#ff99ca"/>
      <stop offset="0.67" stop-color="#ffd7ea"/>
      <stop offset="0.68" stop-color="#fff"/>
      <stop offset="0.7" stop-color="#ffdce0"/>
      <stop offset="0.76" stop-color="#ff8492"/>
      <stop offset="0.8" stop-color="#ff3b51"/>
      <stop offset="0.86" stop-color="#ca2b7e"/>
      <stop offset="0.99" stop-color="#4604ed"/>
      <stop offset="1" stop-color="#3800f9"/>
    </linearGradient>
  </defs>
  <g id="e4511ecf-3aaa-432c-9e64-7bd821d0d30b" data-name="TON">
    <path d="M230.6,44.7,128.2,207.9a13.9,13.9,0,0,1-19.1,4.3,13.2,13.2,0,0,1-4.4-4.4L4.3,44.7A29.4,29.4,0,0,1,0,29.5,29.9,29.9,0,0,1,30.4,0H204.8C221.5,0,235,13.1,235,29.4a28.6,28.6,0,0,1-4.4,15.3M29,39.3l74.7,115.2V27.7H36.8c-7.8,0-11.2,5.1-7.8,11.6M131.3,154.5,206.1,39.3c3.4-6.5-.1-11.6-7.9-11.6H131.3Z" style="fill: url(#ea525a05-2ca4-451e-9bd1-a9f1b75f47b8)"/>
  </g>
</svg>
