<svg xmlns="http://www.w3.org/2000/svg" xmlns:xlink="http://www.w3.org/1999/xlink" width="235" height="214.3" viewBox="0 0 235 214.3">
  <defs>
    <linearGradient id="a6b713c9-8516-4702-b320-2502f77f23bb" x1="9.32" y1="15.67" x2="181.76" y2="118.33" gradientUnits="userSpaceOnUse">
      <stop offset="0" stop-color="#dea4bc"/>
      <stop offset="0.04" stop-color="#deb1c1"/>
      <stop offset="0.23" stop-color="#dce5d7"/>
      <stop offset="0.29" stop-color="#b9dfd4"/>
      <stop offset="0.36" stop-color="#9ddad1"/>
      <stop offset="0.42" stop-color="#8bd7d0"/>
      <stop offset="0.46" stop-color="#85d6cf"/>
      <stop offset="0.5" stop-color="#8ad7d1"/>
      <stop offset="0.54" stop-color="#98dbd5"/>
      <stop offset="0.59" stop-color="#afe2dd"/>
      <stop offset="0.63" stop-color="#cfebe9"/>
      <stop offset="0.68" stop-color="#f6f6f6"/>
      <stop offset="0.71" stop-color="#d4e9eb"/>
      <stop offset="0.76" stop-color="#a1d5d9"/>
      <stop offset="0.8" stop-color="#7bc7cd"/>
      <stop offset="0.84" stop-color="#64bec5"/>
      <stop offset="0.86" stop-color="#5cbbc2"/>
      <stop offset="1" stop-color="#2975a7"/>
    </linearGradient>
  </defs>
  <g id="f2ce986c-22a6-414a-8b31-e4468f13f47e" data-name="TON">
    <path d="M230.6,44.7,128.2,207.9a13.9,13.9,0,0,1-19.1,4.3,13.2,13.2,0,0,1-4.4-4.4L4.3,44.7A29.4,29.4,0,0,1,0,29.5,29.9,29.9,0,0,1,30.4,0H204.8C221.5,0,235,13.1,235,29.4a28.6,28.6,0,0,1-4.4,15.3M29,39.3l74.7,115.2V27.7H36.8c-7.8,0-11.2,5.1-7.8,11.6M131.3,154.5,206.1,39.3c3.4-6.5-.1-11.6-7.9-11.6H131.3Z" style="fill: url(#a6b713c9-8516-4702-b320-2502f77f23bb)"/>
  </g>
</svg>
