<svg xmlns="http://www.w3.org/2000/svg" xmlns:xlink="http://www.w3.org/1999/xlink" width="235" height="214.3" viewBox="0 0 235 214.3">
  <defs>
    <linearGradient id="b32ec682-dbfd-4a65-8e99-30975de612e2" x1="9.32" y1="15.97" x2="181.76" y2="118.64" gradientUnits="userSpaceOnUse">
      <stop offset="0" stop-color="#d69225"/>
      <stop offset="0.06" stop-color="#d9992d"/>
      <stop offset="0.16" stop-color="#e2ae43"/>
      <stop offset="0.28" stop-color="#f1cf67"/>
      <stop offset="0.37" stop-color="#fdeb85"/>
      <stop offset="0.52" stop-color="#d69225"/>
      <stop offset="0.59" stop-color="#dfae5f"/>
      <stop offset="0.77" stop-color="#f6f6f6"/>
      <stop offset="0.78" stop-color="#eee5d0"/>
      <stop offset="0.8" stop-color="#e5d1a5"/>
      <stop offset="0.83" stop-color="#dec181"/>
      <stop offset="0.85" stop-color="#d8b565"/>
      <stop offset="0.87" stop-color="#d4ac52"/>
      <stop offset="0.89" stop-color="#d2a746"/>
      <stop offset="0.91" stop-color="#d1a542"/>
      <stop offset="0.94" stop-color="#c29039"/>
      <stop offset="0.98" stop-color="#9b5b22"/>
      <stop offset="1" stop-color="#8b4418"/>
    </linearGradient>
  </defs>
  <g id="bc581efd-d0c2-4cc4-ae55-43f8774b0234" data-name="TON">
    <path d="M230.6,45,128.2,208.2a13.9,13.9,0,0,1-19.1,4.3,13.2,13.2,0,0,1-4.4-4.4L4.3,45A29.4,29.4,0,0,1,0,29.8,30,30,0,0,1,30.4.3H204.8C221.5.3,235,13.5,235,29.7A28.6,28.6,0,0,1,230.6,45M29,39.6l74.7,115.2V28H36.8C29,28,25.6,33.1,29,39.6M131.3,154.8,206.1,39.6c3.4-6.5-.1-11.6-7.9-11.6H131.3Z" style="fill: url(#b32ec682-dbfd-4a65-8e99-30975de612e2)"/>
  </g>
</svg>
