<svg xmlns="http://www.w3.org/2000/svg" xmlns:xlink="http://www.w3.org/1999/xlink" width="235" height="214.3" viewBox="0 0 235 214.3">
  <defs>
    <linearGradient id="bfb710bd-2a57-43ad-bf7c-dcd52b1b8ae1" x1="9.32" y1="15.82" x2="181.76" y2="118.49" gradientUnits="userSpaceOnUse">
      <stop offset="0" stop-color="#545454"/>
      <stop offset="0.25" stop-color="#f2f2f2"/>
      <stop offset="0.31" stop-color="#efefef"/>
      <stop offset="0.37" stop-color="#e4e4e4"/>
      <stop offset="0.43" stop-color="#d2d2d2"/>
      <stop offset="0.48" stop-color="#b9b9b9"/>
      <stop offset="0.53" stop-color="#989898"/>
      <stop offset="0.54" stop-color="#8e8e8e"/>
      <stop offset="0.78" stop-color="#f6f6f6"/>
      <stop offset="0.81" stop-color="#d7d7d7"/>
      <stop offset="0.84" stop-color="#b9b9b9"/>
      <stop offset="0.88" stop-color="#a1a1a1"/>
      <stop offset="0.91" stop-color="#8f8f8f"/>
      <stop offset="0.95" stop-color="#858585"/>
      <stop offset="1" stop-color="#828282"/>
    </linearGradient>
  </defs>
  <g id="b4035e57-bb91-44ee-a8b7-8cca973e2464" data-name="TON">
    <path d="M230.6,44.9,128.2,208a13.8,13.8,0,0,1-19.1,4.3,13.2,13.2,0,0,1-4.4-4.4L4.3,44.8A29.1,29.1,0,0,1,0,29.6,29.9,29.9,0,0,1,30.4.2H204.8C221.5.2,235,13.3,235,29.5a28.7,28.7,0,0,1-4.4,15.4M29,39.4l74.7,115.2V27.8H36.8c-7.8,0-11.2,5.1-7.8,11.6M131.3,154.6,206.1,39.4c3.4-6.5-.1-11.6-7.9-11.6H131.3Z" style="fill: url(#bfb710bd-2a57-43ad-bf7c-dcd52b1b8ae1)"/>
  </g>
</svg>
