<?xml version="1.0" encoding="UTF-8"?>
<svg version="1.1" xmlns="http://www.w3.org/2000/svg" width="512" height="512">
<path d="M0 0 C0.66386719 0.36577148 1.32773437 0.73154297 2.01171875 1.10839844 C10.11733302 5.6589875 16.94816425 10.64744381 23.5625 17.1875 C29.86990933 23.39751672 35.92881479 26.9234146 44.08203125 30.20361328 C65.08059736 38.92272258 83.76163762 51.9355058 100.24609375 67.45703125 C102.18388732 69.24639808 104.11227184 70.9389145 106.1484375 72.60546875 C109.89267805 75.749605 112.84841923 79.2787104 116 83 C117.22203125 84.37285156 117.22203125 84.37285156 118.46875 85.7734375 C146.18958138 117.15015317 163.8513209 158.35157215 168 200 C168.10957031 200.98613281 168.21914063 201.97226563 168.33203125 202.98828125 C173.65174404 258.80980085 156.60949848 314.73934918 121 358 C118.68715245 360.6559015 116.34113626 363.27097119 113.953125 365.859375 C112.37097392 367.59341258 110.89053119 369.34699382 109.4375 371.1875 C106.8654923 374.15520119 104.13152117 376.62595233 101.14453125 379.1640625 C99.74466266 380.3624928 98.36560168 381.5857902 97.01171875 382.8359375 C68.01143814 409.59702507 28.85011675 427.24108018 -10 433 C-11.11785889 433.17136475 -11.11785889 433.17136475 -12.25830078 433.34619141 C-65.17581509 441.11294987 -121.93240192 428.09640499 -165.3046875 396.5637207 C-182.40661266 383.7767876 -197.95037211 369.74440053 -210.77880859 352.62695312 C-211.87736694 351.16337999 -212.99421847 349.71358054 -214.11328125 348.265625 C-240.94068062 312.78249156 -254.21525791 268.48618084 -254.25 224.3125 C-254.25067474 223.53921356 -254.25134949 222.76592712 -254.25204468 221.96920776 C-254.18734715 175.09252341 -238.94734771 124.56900105 -206.6796875 89.4765625 C-201.01158764 83.23204571 -198.38778698 77.32669726 -195.72949219 69.47802734 C-189.07841368 50.21713957 -176.89427696 34.59643797 -163 20 C-162.39542969 19.34257813 -161.79085937 18.68515625 -161.16796875 18.0078125 C-142.77761051 -1.41168987 -117.57160924 -11.57705023 -92 -17 C-91.09507812 -17.19722656 -90.19015625 -17.39445312 -89.2578125 -17.59765625 C-58.59668066 -23.06149116 -26.79743382 -14.8333536 0 0 Z M-184 188 C-185.38529821 193.45461169 -186.2396943 198.36718401 -186 204 C-180.95161088 206.93724458 -177.01633938 208.84228751 -171 208 C-168.77415906 205.32461734 -168.77415906 205.32461734 -169.140625 203.0234375 C-170.23030655 200.45773277 -171.58077699 199.3620094 -173.75 197.625 C-177.30843733 194.6670889 -180.10609997 191.59545155 -183 188 C-183.33 188 -183.66 188 -184 188 Z M-186 248 C-185.67 249.65 -185.34 251.3 -185 253 C-183.02 252.34 -181.04 251.68 -179 251 C-182.05580974 248.41222792 -182.05580974 248.41222792 -186 248 Z M66 311 C14.67846316 340.26652398 -54.17503223 353.62690369 -112.59375 345.4375 C-115.45349857 345.07019284 -118.12444277 344.91152132 -121 345 C-105.43752056 361.75519124 -72.83314991 367.56847224 -51.1171875 368.921875 C-17.03984419 369.77594375 15.10435022 361.08800659 43 341 C43.78246094 340.443125 44.56492187 339.88625 45.37109375 339.3125 C51.30123301 334.83239479 56.54285218 329.66015234 61.8125 324.4375 C62.54235107 323.71699463 63.27220215 322.99648926 64.02416992 322.25415039 C71.38462426 315.56749768 71.38462426 315.56749768 75 307 C71.59634938 307 68.87460458 309.31056339 66 311 Z " fill="#CC0000" transform="translate(291,42)"/>
<path d="M0 0 C0.66386719 0.36577148 1.32773437 0.73154297 2.01171875 1.10839844 C13.07777073 7.32101273 22.12467167 14.96724995 31 24 C32.28003906 25.299375 32.28003906 25.299375 33.5859375 26.625 C48.31763583 42.33881156 60.0303481 61.89863574 64.625 83 C64.8415625 83.9590625 65.058125 84.918125 65.28125 85.90625 C67.03017771 93.76562887 68.18020481 101.32111511 68.1875 109.375 C68.19974609 110.07882813 68.21199219 110.78265625 68.22460938 111.5078125 C68.23056158 113.68235312 68.12704022 115.82944773 68 118 C68.00531738 118.75176514 68.01063477 119.50353027 68.01611328 120.27807617 C67.79612865 123.01271274 67.40012626 124.6224774 66 127 C61.81329638 130.17773453 57.2319983 132.34306185 52.5 134.5625 C51.22385244 135.19312229 49.94909297 135.82656184 48.67578125 136.46289062 C39.48567887 141 39.48567887 141 37 141 C36.67128906 140.18595703 36.67128906 140.18595703 36.3359375 139.35546875 C35.86027344 138.28232422 35.86027344 138.28232422 35.375 137.1875 C35.07335937 136.47980469 34.77171875 135.77210938 34.4609375 135.04296875 C32.34042292 132.07765023 30.41912554 131.2578332 27 130 C23.91531272 129.64203896 20.85268591 129.63999621 17.75 129.625 C5.74324032 129.23191478 -1.21184026 124.99761262 -10.36083984 117.56665039 C-15.51755979 113.39788508 -20.13478359 110.29720709 -26.98828125 110.67578125 C-30.71906585 111.27705333 -33.34906302 112.37407186 -36 115 C-39.61994844 120.71384019 -41.99126656 126.97106855 -44.4375 133.25 C-48.68552296 143.39512315 -54.67911024 147.89796258 -64.3137207 152.68041992 C-69.96184589 155.57438338 -72.94238353 158.82715059 -75 165 C-75.84108514 171.0918595 -74.96970479 175.29240338 -71.4375 180.33984375 C-69.55213215 182.51723868 -67.60788831 183.80178104 -65 185 C-64.34 185.33 -63.68 185.66 -63 186 C-61.46331135 186.22467831 -59.92031946 186.40796805 -58.375 186.5625 C-57.55773437 186.64628906 -56.74046875 186.73007813 -55.8984375 186.81640625 C-55.27195313 186.87699219 -54.64546875 186.93757812 -54 187 C-57.21942542 189.60126444 -60.57662279 191.39639311 -64.28515625 193.22265625 C-64.90031601 193.52763535 -65.51547577 193.83261444 -66.14927673 194.14683533 C-68.11847421 195.1225761 -70.09023893 196.09296854 -72.0625 197.0625 C-80.36389634 201.15207251 -88.61970783 205.30358253 -96.79296875 209.64453125 C-109.75179495 216.51573177 -122.9116642 222.98859963 -136.04516602 229.51739502 C-139.00907381 230.99098711 -141.97239627 232.46573772 -144.93493652 233.94207764 C-147.21391118 235.07770079 -149.49391929 236.21125269 -151.77502441 237.34259033 C-156.49076717 239.69198111 -161.17705656 242.05741173 -165.76367188 244.65136719 C-166.45023865 245.03722992 -167.13680542 245.42309265 -167.84417725 245.82064819 C-169.56496667 246.801841 -171.2711621 247.80851736 -172.97558594 248.81787109 C-176.77389504 250.30248626 -179.07080156 249.93340163 -183 249 C-195.00523252 243.56366829 -201.7371667 234.54551578 -206.3125 222.5625 C-207.71351984 215.30266991 -208.25119992 208.37679988 -204 202 C-202 200 -202 200 -198.5 199.625 C-192.05784111 199.77726921 -186.36805704 202.69989025 -180.8125 205.75 C-177.38418065 207.27369749 -174.71067445 207.22264047 -171 207 C-170.67 205.35 -170.34 203.7 -170 202 C-170.49628906 201.59910156 -170.99257812 201.19820312 -171.50390625 200.78515625 C-190.586573 184.81654897 -202.14104749 159.39370078 -205 135 C-207.6461235 97.70535139 -198.27305104 60.9424937 -174 32 C-170.43908342 27.89779317 -166.74487405 23.93412496 -163 20 C-162.39542969 19.34257813 -161.79085937 18.68515625 -161.16796875 18.0078125 C-142.77761051 -1.41168987 -117.57160924 -11.57705023 -92 -17 C-91.09507812 -17.19722656 -90.19015625 -17.39445312 -89.2578125 -17.59765625 C-58.59668066 -23.06149116 -26.79743382 -14.8333536 0 0 Z " fill="#FED427" transform="translate(291,42)"/>
<path d="M0 0 C3.1704747 10.66794946 5.40139276 20.07244858 2 31 C1.03126953 32.52753906 1.03126953 32.52753906 0.04296875 34.0859375 C-2.89322472 39.00474603 -3.26222155 44.40839389 -4 50 C-5.40059669 59.59505997 -7.14828776 68.71773345 -10 78 C-10.27199219 78.98097656 -10.54398438 79.96195312 -10.82421875 80.97265625 C-15.0035748 95.02361345 -22.3875361 111.58735365 -35.625 118.875 C-36.37587891 119.29789307 -37.12675781 119.72078613 -37.90039062 120.15649414 C-40.25419318 121.46283506 -42.62350871 122.73547681 -45 124 C-45.69834961 124.37914551 -46.39669922 124.75829102 -47.11621094 125.14892578 C-96.68228207 151.69128711 -162.03770156 162.37707702 -217.4375 155.6875 C-218.91089844 155.51118042 -218.91089844 155.51118042 -220.4140625 155.33129883 C-234.10957059 153.44188855 -244.56146578 143.64635516 -254 134 C-255.02361839 132.34773393 -256.02706485 130.68260957 -257 129 C-239.61459715 119.24404481 -221.85476206 110.31875981 -204.00177002 101.46136475 C-197.50497731 98.23751091 -191.01152903 95.00693452 -184.51953125 91.7734375 C-183.82409336 91.42722603 -183.12865547 91.08101456 -182.41214371 90.72431183 C-173.87478673 86.47162553 -165.3827944 82.14876166 -156.96504211 77.66305542 C-144.5979878 71.09677993 -131.99829206 64.97307482 -119.4609375 58.74072266 C-102.94296858 50.53952055 -102.94296858 50.53952055 -86.578125 42.0390625 C-78.91891326 37.96546193 -71.18493495 34.05132756 -63.421875 30.1796875 C-62.52886436 29.73426228 -62.52886436 29.73426228 -61.61781311 29.27983856 C-57.32996784 27.14202464 -53.04017946 25.00812486 -48.75 22.875 C-43.84768055 20.43745516 -38.94630491 17.9980357 -34.046875 15.5546875 C-32.88990112 14.97781189 -31.73292725 14.40093628 -30.54089355 13.80657959 C-23.15764229 10.11281505 -15.84094224 6.3225767 -8.59863281 2.35986328 C-5.53756837 0.75800975 -3.4725372 0 0 0 Z " fill="#FED426" transform="translate(397,233)"/>
<path d="M0 0 C24.71798653 7.06228187 46.92082438 23.26672694 66 40 C66.92039062 40.79664063 67.84078125 41.59328125 68.7890625 42.4140625 C73.97353831 46.97201555 78.57380881 51.71417663 83 57 C83.80953125 57.91007812 84.6190625 58.82015625 85.453125 59.7578125 C113.18660994 91.1302133 130.85096255 132.34797465 135 174 C135.10957031 174.98613281 135.21914063 175.97226563 135.33203125 176.98828125 C140.65174404 232.80980085 123.60949848 288.73934918 88 332 C85.68715245 334.6559015 83.34113626 337.27097119 80.953125 339.859375 C79.37097392 341.59341258 77.89053119 343.34699382 76.4375 345.1875 C73.8654923 348.15520119 71.13152117 350.62595233 68.14453125 353.1640625 C66.74466266 354.3624928 65.36560168 355.5857902 64.01171875 356.8359375 C35.01143814 383.59702507 -4.14988325 401.24108018 -43 407 C-44.11785889 407.17136475 -44.11785889 407.17136475 -45.25830078 407.34619141 C-98.17581509 415.11294987 -154.93240192 402.09640499 -198.3046875 370.5637207 C-215.40661266 357.7767876 -230.95037211 343.74440053 -243.77880859 326.62695312 C-244.87736694 325.16337999 -245.99421847 323.71358054 -247.11328125 322.265625 C-273.94068062 286.78249156 -287.21525791 242.48618084 -287.25 198.3125 C-287.25067474 197.53921356 -287.25134949 196.76592712 -287.25204468 195.96920776 C-287.17869737 142.82530973 -267.20051811 96.89001141 -234 56 C-232.27933737 61.16198788 -234.24860024 65.98737311 -236 71 C-238.04329085 74.8767302 -240.49700296 78.40769091 -243 82 C-266.21474184 116.92630818 -278.46061005 154.96263257 -278.375 196.9375 C-278.37445618 197.93789307 -278.37391235 198.93828613 -278.37335205 199.96899414 C-278.33648046 214.70229112 -277.78298179 228.68601483 -274 243 C-273.77505859 243.89460937 -273.55011719 244.78921875 -273.31835938 245.7109375 C-270.40391762 257.17601414 -266.69220228 268.14353199 -262 279 C-261.30777344 280.66289063 -261.30777344 280.66289063 -260.6015625 282.359375 C-244.04886571 319.98648087 -215.62411923 350.31530677 -181 372 C-180.40058594 372.37866211 -179.80117187 372.75732422 -179.18359375 373.14746094 C-137.48849027 399.10558962 -82.31633356 407.75116729 -34.47143555 397.06982422 C12.46659211 385.81688645 55.35685862 361.88827954 85 323 C85.44956055 322.41041504 85.89912109 321.82083008 86.36230469 321.21337891 C102.68677464 299.56715385 114.35645885 275.49500067 121.375 249.3125 C121.60171387 248.47211182 121.82842773 247.63172363 122.06201172 246.76586914 C126.1093038 230.61172255 127.55948226 214.4201291 127.4375 197.8125 C127.43445862 196.92502075 127.43141724 196.0375415 127.42828369 195.12316895 C127.35436997 180.46328506 126.39555572 166.31094944 123 152 C122.78569336 151.08959961 122.57138672 150.17919922 122.35058594 149.24121094 C114.23508718 115.98774803 97.41904865 86.60087122 75 61 C73.93635074 59.70927955 72.87362367 58.41779758 71.8125 57.125 C69.16105045 54.04174295 66.20217781 51.42136586 63.1015625 48.796875 C61.73627689 47.62953043 60.39557229 46.43257807 59.0859375 45.203125 C46.45465033 33.40091846 30.6194193 22.48710419 14.6875 15.6875 C8.22099822 12.63357227 4.09435673 6.67983103 0 1 C0 0.67 0 0.34 0 0 Z " fill="#A40000" transform="translate(324,68)"/>
<path d="M0 0 C0.66386719 0.36577148 1.32773437 0.73154297 2.01171875 1.10839844 C13.07777073 7.32101273 22.12467167 14.96724995 31 24 C32.28003906 25.299375 32.28003906 25.299375 33.5859375 26.625 C48.31763583 42.33881156 60.0303481 61.89863574 64.625 83 C64.8415625 83.9590625 65.058125 84.918125 65.28125 85.90625 C72.13370604 116.70000307 72.13370604 116.70000307 66 127 C62.81321314 129.53617631 59.1804081 132 55 132 C55.144375 131.23558594 55.28875 130.47117188 55.4375 129.68359375 C60.51258278 100.39613688 54.13101521 72.41596891 37.0625 48.1875 C33.00668154 42.84299068 28.60873758 37.87121175 24 33 C23.24074219 32.17628906 22.48148438 31.35257813 21.69921875 30.50390625 C8.17467984 16.3153147 -8.7431929 6.73134152 -27 0 C-27.98613281 -0.3815625 -28.97226562 -0.763125 -29.98828125 -1.15625 C-58.36277702 -11.51706173 -91.15408336 -9.45093332 -118.6796875 2.40625 C-132.28909336 8.93876481 -144.05665146 17.66054862 -155 28 C-155.68835938 28.63550781 -156.37671875 29.27101562 -157.0859375 29.92578125 C-179.6044201 51.42069646 -193.61133648 83.79481197 -194.49945068 114.74549866 C-194.74565352 127.56100948 -194.47415047 139.86577148 -190 152 C-189.78037598 152.62712891 -189.56075195 153.25425781 -189.33447266 153.90039062 C-184.59799021 167.34891687 -178.12370406 178.85953484 -168 189 C-167.26265625 189.74894531 -166.5253125 190.49789062 -165.765625 191.26953125 C-159.57213782 197.20322451 -152.66125709 201.54681613 -145.34375 205.93359375 C-142 208 -142 208 -140 210 C-140.32971479 213.29714793 -140.6226839 214.6226839 -143 217 C-147.60544645 216.69340512 -150.90647159 215.21214433 -154.875 212.9375 C-155.84179688 212.38964844 -156.80859375 211.84179688 -157.8046875 211.27734375 C-158.52914062 210.85582031 -159.25359375 210.43429688 -160 210 C-160.61101562 210.92039063 -160.61101562 210.92039063 -161.234375 211.859375 C-164.81944285 216.20587319 -170.17239462 217.77942694 -175.625 218.4375 C-180.41996692 217.81593021 -184.32367929 216.33119586 -188.125 213.3125 C-190.54693027 211.61714881 -192.10608699 211.68714454 -195 212 C-196.19897805 212.9707529 -196.19897805 212.9707529 -196.0546875 214.75 C-195.48669976 221.86219431 -193.35872194 227.64127806 -188.2421875 232.7578125 C-180.45771079 239.0295164 -171.87346288 241.57985264 -162 242 C-167.2585102 246.11009993 -172.87355447 249.9470094 -179.6875 250.0625 C-189.38357014 246.95243977 -198.30228372 239.99246118 -203 230.875 C-206.71809778 222.32206129 -209.10455383 213.45270766 -205.625 204.4375 C-204 202 -204 202 -202 200 C-193.98818473 199.14159122 -187.75456625 201.93866951 -180.8125 205.75 C-177.38418065 207.27369749 -174.71067445 207.22264047 -171 207 C-170.67 205.35 -170.34 203.7 -170 202 C-170.49628906 201.59910156 -170.99257812 201.19820312 -171.50390625 200.78515625 C-190.586573 184.81654897 -202.14104749 159.39370078 -205 135 C-207.6461235 97.70535139 -198.27305104 60.9424937 -174 32 C-170.43908342 27.89779317 -166.74487405 23.93412496 -163 20 C-162.39542969 19.34257813 -161.79085937 18.68515625 -161.16796875 18.0078125 C-142.77761051 -1.41168987 -117.57160924 -11.57705023 -92 -17 C-91.09507812 -17.19722656 -90.19015625 -17.39445312 -89.2578125 -17.59765625 C-58.59668066 -23.06149116 -26.79743382 -14.8333536 0 0 Z " fill="#F98F16" transform="translate(291,42)"/>
<path d="M0 0 C1.875 1.1875 1.875 1.1875 3 3 C3.1875 5.375 3.1875 5.375 2 8 C-2.74804203 11.58525623 -8.03173147 14.03621278 -13.34765625 16.671875 C-18.73890636 19.35639187 -24.11296847 22.07008757 -29.4609375 24.83984375 C-30.08864548 25.16479324 -30.71635345 25.48974274 -31.36308289 25.82453918 C-32.67829677 26.5055819 -33.99346604 27.18671079 -35.30859375 27.86791992 C-53.22401417 37.14101265 -71.26093277 46.16614011 -89.32568359 55.14428711 C-98.3691482 59.6443189 -107.39234189 64.1656992 -116.3125 68.90625 C-129.5852718 75.95745457 -143.08175653 82.5696149 -156.5390625 89.25927734 C-173.08805928 97.47651758 -173.08805928 97.47651758 -189.484375 105.9921875 C-202.20696241 112.75775878 -215.14292427 119.10356133 -228.04516602 125.51739502 C-248.15647416 135.49977255 -248.15647416 135.49977255 -268 146 C-263.90888553 151.8667506 -259.6067696 156.55189733 -254 161 C-253.23300781 161.61488281 -252.46601563 162.22976563 -251.67578125 162.86328125 C-219.16636532 187.70585177 -178.9893029 197.61249784 -138.68310547 192.40673828 C-115.72401153 188.92631512 -93.79334097 179.54070775 -75 166 C-73.80890625 165.14728516 -73.80890625 165.14728516 -72.59375 164.27734375 C-60.4808901 155.09175832 -49.32444117 143.71266469 -41 131 C-40.32710937 130.03707031 -39.65421875 129.07414063 -38.9609375 128.08203125 C-27.09531157 110.90576001 -19.99503709 90.90514344 -17.3671875 70.1796875 C-16.05659995 59.9737744 -14.5663258 51.86288769 -9 43 C-8.67 43 -8.34 43 -8 43 C-7.76002111 54.51898657 -8.04748288 65.61122325 -10 77 C-10.11827148 77.70060547 -10.23654297 78.40121094 -10.35839844 79.12304688 C-14.32252587 101.5763488 -23.94644968 123.06105635 -38 141 C-38.63679688 141.82886719 -39.27359375 142.65773438 -39.9296875 143.51171875 C-41.91077909 146.04576562 -43.94199044 148.52808908 -46 151 C-46.70253906 151.86238281 -47.40507812 152.72476563 -48.12890625 153.61328125 C-68.31455096 177.21443268 -99.8952304 193.52192775 -130.07177734 199.609375 C-131.73609975 199.94653831 -133.3941933 200.31418441 -135.05078125 200.6875 C-151.9992379 203.99004094 -171.02471494 202.99611746 -188 200 C-188.7312207 199.87109375 -189.46244141 199.7421875 -190.21582031 199.609375 C-201.03377065 197.61817153 -210.98215637 194.60659355 -221 190 C-221.65210449 189.70077637 -222.30420898 189.40155273 -222.97607422 189.09326172 C-236.76548189 182.67020429 -249.40225303 174.89334835 -261 165 C-261.804375 164.31808594 -262.60875 163.63617188 -263.4375 162.93359375 C-267.72156301 159.2202694 -271.52628124 155.48221775 -275 151 C-278.41977568 151.42747196 -280.99837246 152.45367312 -284 154.0625 C-287.14126492 155.69240161 -289.3960346 156.63599389 -293 156 C-295 154 -295 154 -295.125 150.875 C-295.08375 149.92625 -295.0425 148.9775 -295 148 C-283.40798018 141.812934 -271.7351159 135.81435481 -259.95361328 129.99536133 C-253.73035536 126.90939529 -247.5726342 123.72538032 -241.4375 120.46875 C-228.13767567 113.42403534 -214.63217455 106.78334988 -201.15661621 100.08349609 C-182.09518143 90.60706087 -182.09518143 90.60706087 -163.21069336 80.78430176 C-150.75629735 74.18722408 -138.08037861 68.01388026 -125.4609375 61.74072266 C-108.90418716 53.51946617 -108.90418716 53.51946617 -92.5 45 C-79.29166709 37.97658999 -65.85558759 31.3992387 -52.4609375 24.74072266 C-35.22716927 16.17151378 -35.22716927 16.17151378 -18.125 7.34375 C-17.36445313 6.94385864 -16.60390625 6.54396729 -15.8203125 6.13195801 C-12.87786242 4.57266906 -9.9945712 2.99666293 -7.15625 1.25195312 C-4.51793651 -0.27989375 -3.00286473 -0.47413654 0 0 Z " fill="#A40100" transform="translate(409,216)"/>
<path d="M0 0 C4.31528237 2.28006054 8.00951423 5.06042167 11.765625 8.1640625 C20.74966412 15.40881356 27.46755019 17.77797714 38.96459961 17.71264648 C44.76128738 17.75614101 48.06017716 18.80385279 52.828125 22.1640625 C55.45340965 25.7738289 55.88186114 27.5084816 55.515625 31.9765625 C55.39058594 32.65074219 55.26554687 33.32492188 55.13671875 34.01953125 C54.80126394 36.35072985 54.92432049 38.44255783 55.078125 40.7890625 C55.11615618 44.46540984 54.80081303 45.20744033 52.703125 48.5390625 C47.91719013 52.90882912 43.21239648 54.5043639 36.90234375 55.63671875 C35.54692581 55.89251019 34.19179296 56.1498158 32.83691406 56.40844727 C32.13215942 56.54098907 31.42740479 56.67353088 30.70129395 56.81008911 C18.05030491 59.22070133 6.44102111 62.44259765 -5.44458008 67.51708984 C-12.09712632 70.35666485 -18.72876237 72.81423228 -25.671875 74.8515625 C-26.50235352 75.10752197 -27.33283203 75.36348145 -28.18847656 75.62719727 C-34.96329341 77.53685396 -40.79319293 77.39858095 -47.421875 74.9765625 C-51.9128012 72.01663387 -55.06598244 68.15268798 -57.171875 63.1640625 C-57.96279525 57.51463213 -57.35330607 52.99106137 -54.171875 48.1640625 C-50.61883799 44.2035087 -46.90522743 41.71733058 -42.234375 39.2890625 C-32.83078489 34.1003718 -29.34242357 29.28132569 -25.453125 19.37109375 C-24.13536659 16.07268017 -22.70528379 12.86779158 -21.171875 9.6640625 C-20.718125 8.705 -20.264375 7.7459375 -19.796875 6.7578125 C-15.39835847 -0.26289658 -7.80195755 -3.00291172 0 0 Z " fill="#CF3602" transform="translate(272.171875,152.8359375)"/>
<path d="M0 0 C7.98782149 9.95023721 11.09429356 25.21060197 13.875 37.4375 C14.16093018 38.69312744 14.16093018 38.69312744 14.45263672 39.97412109 C17.51956399 54.30957753 18.40824473 68.33181451 18.375 82.9375 C18.37418427 84.29036606 18.37418427 84.29036606 18.37335205 85.67056274 C18.33337181 100.12533906 17.39066785 113.9009961 14 128 C13.79632813 128.90057129 13.59265625 129.80114258 13.3828125 130.72900391 C1.50547412 182.51823166 -31.40293956 227.723389 -76.00927734 256.28662109 C-122.31800229 285.16250373 -177.67537661 295.0181367 -231.06640625 283.1875 C-260.16181054 276.35374506 -286.20352697 264.07846695 -310 246 C-310.59441895 245.54874756 -311.18883789 245.09749512 -311.80126953 244.63256836 C-315.9533869 241.34959824 -315.9533869 241.34959824 -316.375 238.1875 C-316.25125 237.465625 -316.1275 236.74375 -316 236 C-314.21020508 235.36181641 -314.21020508 235.36181641 -312 235 C-310.31518555 235.84521484 -310.31518555 235.84521484 -308.63671875 237.2109375 C-308.00564209 237.70924072 -307.37456543 238.20754395 -306.72436523 238.72094727 C-306.05219971 239.26678467 -305.38003418 239.81262207 -304.6875 240.375 C-279.39883518 260.0280525 -249.48983847 272.53187546 -218 278 C-216.77152344 278.22558594 -215.54304688 278.45117188 -214.27734375 278.68359375 C-165.47095453 286.25249903 -112.2952983 273.73453898 -72.32324219 244.78564453 C-65.63486673 239.88326058 -59.30047275 234.65215108 -53.21875 229.0078125 C-51.66550713 227.60223709 -50.0577934 226.25562832 -48.4140625 224.95703125 C-44.79630623 222.02419 -42.0066192 218.54087668 -39 215 C-38.18402344 214.08347656 -37.36804688 213.16695312 -36.52734375 212.22265625 C-2.05385838 173.17499868 13.65514055 121.6405597 11 70 C9.39014564 48.04366372 3.99998953 27.43008079 -4 7 C-4.33 6.01 -4.66 5.02 -5 4 C-4.360625 3.896875 -3.72125 3.79375 -3.0625 3.6875 C-2.381875 3.460625 -1.70125 3.23375 -1 3 C-0.67 2.01 -0.34 1.02 0 0 Z " fill="#BE0000" transform="translate(434,182)"/>
<path d="M0 0 C0 4.13600124 -1.85493726 7.14409558 -3.6875 10.75 C-4.19700195 11.78640625 -4.19700195 11.78640625 -4.71679688 12.84375 C-8.79836071 20.96110312 -12.56749985 26.43908901 -20.625 30.875 C-21.37587891 31.29789307 -22.12675781 31.72078613 -22.90039062 32.15649414 C-25.25419318 33.46283506 -27.62350871 34.73547681 -30 36 C-30.69834961 36.37914551 -31.39669922 36.75829102 -32.11621094 37.14892578 C-81.68228207 63.69128711 -147.03770156 74.37707702 -202.4375 67.6875 C-203.41976562 67.56995361 -204.40203125 67.45240723 -205.4140625 67.33129883 C-219.10957059 65.44188855 -229.56146578 55.64635516 -239 46 C-240.05302285 44.36631684 -241.07032614 42.70689317 -242 41 C-240.515 40.505 -240.515 40.505 -239 40 C-238.071875 41.051875 -238.071875 41.051875 -237.125 42.125 C-231.03537385 48.18022149 -223.20894657 51.82063365 -215 54 C-214.28199219 54.19335938 -213.56398437 54.38671875 -212.82421875 54.5859375 C-168.28767174 65.50253339 -112.32373767 55.78410019 -70 40 C-68.54591425 39.51329148 -67.09007439 39.03180209 -65.6328125 38.5546875 C-40.83256192 30.340575 -18.61680253 18.61680253 0 0 Z " fill="#F99016" transform="translate(382,321)"/>
<path d="M0 0 C-1.06423943 0.53045425 -1.06423943 0.53045425 -2.14997864 1.07162476 C-8.92925269 4.45112497 -15.70749088 7.8326908 -22.48465443 11.21642113 C-25.96652283 12.95477711 -29.44874804 14.69240923 -32.93188477 16.42822266 C-51.18241042 25.48837605 -51.18241042 25.48837605 -69.26171875 34.8828125 C-77.93093742 39.50308165 -86.710659 43.89542808 -95.5 48.28125 C-96.61685716 48.83860273 -96.61685716 48.83860273 -97.75627708 49.40721512 C-103.95361097 52.49883967 -110.15353946 55.5852487 -116.35351562 58.67156982 C-121.73684356 61.35162697 -127.11922994 64.03356072 -132.5 66.71875 C-133.23833384 67.08716696 -133.97666767 67.45558392 -134.73737526 67.83516502 C-145.30032627 73.10973357 -155.78982962 78.50316757 -166.21038818 84.05450439 C-170.53920501 86.34152399 -174.9244578 88.51698854 -179.3125 90.6875 C-186.85810869 94.41224662 -186.85810869 94.41224662 -194.328125 98.28515625 C-194.96838623 98.62135986 -195.60864746 98.95756348 -196.26831055 99.30395508 C-197.92485195 100.17742058 -199.57410975 101.06466236 -201.22265625 101.953125 C-204.35752305 103.13476255 -205.85774622 103.05301909 -209 102 C-210 101 -210 101 -210.5625 98.25 C-210 95 -210 95 -208.42578125 93.5625 C-204.32754267 90.93962731 -200.71456506 89.57152169 -196 88 C-196.66 82.72 -197.32 77.44 -198 72 C-189.99447514 76.57458564 -189.99447514 76.57458564 -189 80 C-189 80.99 -189 81.98 -189 83 C-185.5591929 81.3819434 -182.12308518 79.75411114 -178.6875 78.125 C-177.28081055 77.46371094 -177.28081055 77.46371094 -175.84570312 76.7890625 C-169.6107224 73.82590335 -163.49013314 70.69880762 -157.39453125 67.4609375 C-143.88316352 60.29157728 -130.15661007 53.54887777 -116.4609375 46.74072266 C-103.61201538 40.35009329 -90.79439399 33.92443705 -78.12866211 27.17675781 C-66.63003953 21.07263966 -55.35305374 15.80306683 -42.78613281 12.31640625 C-34.95183584 10.1085312 -27.47230441 7.17183125 -19.95214844 4.0703125 C-5.47025919 -1.82341973 -5.47025919 -1.82341973 0 0 Z " fill="#A40200" transform="translate(295,212)"/>
<path d="M0 0 C6.86985482 4.0763039 11.51422871 10.78891866 13.625 18.4375 C14.66208418 26.36378625 13.58477062 32.53539982 9.625 39.4375 C9.0475 40.51 8.47 41.5825 7.875 42.6875 C4.16909428 47.21694033 -0.5860774 50.32073934 -6.375 51.4375 C-12.74629755 51.96844146 -17.12881366 51.2123188 -22.375 47.4375 C-28.91349376 41.56811602 -32.67945714 35.72719469 -33.6484375 26.96484375 C-33.99000203 18.46514183 -32.06968798 12.0805676 -26.5625 5.5625 C-19.32073323 -1.94117515 -9.92024202 -4.42595413 0 0 Z " fill="#040301" transform="translate(199.375,142.5625)"/>
<path d="M0 0 C0.33 1.32 0.66 2.64 1 4 C0.24046021 4.37584229 0.24046021 4.37584229 -0.53442383 4.75927734 C-2.96164771 5.96211557 -5.38705473 7.16857956 -7.8125 8.375 C-8.60720703 8.76816406 -9.40191406 9.16132813 -10.22070312 9.56640625 C-15.24689108 12.06987152 -20.23034467 14.64379351 -25.18986511 17.27615356 C-39.5059588 24.87032075 -54.02847155 32.04602414 -68.5390625 39.25927734 C-85.09581284 47.48053383 -85.09581284 47.48053383 -101.5 56 C-114.70833291 63.02341001 -128.14441241 69.6007613 -141.5390625 76.25927734 C-158.06478434 84.46449685 -158.06478434 84.46449685 -174.4375 92.96875 C-187.43741326 99.88237254 -200.66009622 106.36196295 -213.84338379 112.91650391 C-228.35887801 120.13431248 -242.8427292 127.392558 -257.15118408 135.01519775 C-261.06586014 137.10041443 -264.99226906 139.16076358 -268.9375 141.1875 C-269.67677734 141.58001953 -270.41605469 141.97253906 -271.17773438 142.37695312 C-276.49637102 145.09152377 -276.49637102 145.09152377 -279.22875977 144.5949707 C-279.81326904 144.39863037 -280.39777832 144.20229004 -281 144 C-280.79248047 141.67260742 -280.79248047 141.67260742 -280 139 C-277.98486328 137.48950195 -277.98486328 137.48950195 -275.3203125 136.23828125 C-274.32644531 135.75810547 -273.33257812 135.27792969 -272.30859375 134.78320312 C-271.25800781 134.29787109 -270.20742188 133.81253906 -269.125 133.3125 C-267.1054067 132.35312683 -265.08722384 131.39078002 -263.0703125 130.42578125 C-261.95688477 129.89484863 -260.84345703 129.36391602 -259.69628906 128.81689453 C-255.53258116 126.79596051 -251.45303624 124.62216089 -247.3671875 122.44921875 C-233.86604694 115.28163146 -220.14776169 108.54447922 -206.4609375 101.74072266 C-189.93521566 93.53550315 -189.93521566 93.53550315 -173.5625 85.03125 C-160.56258674 78.11762746 -147.33990378 71.63803705 -134.15661621 65.08349609 C-115.09518143 55.60706087 -115.09518143 55.60706087 -96.21069336 45.78430176 C-83.75629735 39.18722408 -71.08037861 33.01388026 -58.4609375 26.74072266 C-44.21769054 19.65660218 -30.03358197 12.49167724 -16 5 C-14.72865253 4.32396122 -13.45717514 3.6481667 -12.18554688 2.97265625 C-10.23874603 1.9377715 -8.29265591 0.90154726 -6.34765625 -0.13671875 C-3.72135468 -1.10246359 -2.57570499 -0.98605876 0 0 Z " fill="#BD0000" transform="translate(400,215)"/>
<path d="M0 0 C2.71084942 1.70885336 5.14417828 3.72666878 7.625 5.75 C20.48171773 15.69239169 31.01150854 17.816032 47 18 C47 18.99 47 19.98 47 21 C46.06430176 21.12004395 45.12860352 21.24008789 44.16455078 21.36376953 C19.04931156 24.47441945 19.04931156 24.47441945 -5 32 C-5.8962207 32.36206543 -6.79244141 32.72413086 -7.71582031 33.09716797 C-12.41347176 34.99777452 -17.09638113 36.93397338 -21.74609375 38.94921875 C-22.87035767 39.43394653 -22.87035767 39.43394653 -24.01733398 39.9284668 C-26.12554523 41.06785101 -27.51567661 42.1182658 -29 44 C-28.76956136 46.65466049 -28.76956136 46.65466049 -28 49 C-19.97795579 48.54817392 -13.29974439 46.1098874 -5.8125 43.3125 C4.79418806 39.45643419 15.3576848 36.52232535 26.4375 34.375 C27.70424561 34.12790283 28.97099121 33.88080566 30.27612305 33.6262207 C35.60565193 32.63994116 40.56599803 31.87529019 46 32 C43.36531811 35.37803857 40.60095545 35.76862035 36.5 36.5625 C35.24445313 36.81128906 33.98890625 37.06007812 32.6953125 37.31640625 C29.59061956 37.89074162 26.48434202 38.45155921 23.375 39 C21.58235813 39.3280483 19.79065943 39.66129756 18 40 C17.16210938 40.15597656 16.32421875 40.31195313 15.4609375 40.47265625 C8.21236933 42.04979428 1.49363354 44.69402264 -5.375 47.4375 C-30.31002805 57.38428171 -30.31002805 57.38428171 -40 56 C-43.50368509 53.56887157 -44.75445216 52.17862962 -45.625 48 C-44.79839113 44.03227742 -43.2674306 42.20772338 -40 40 C-38.07539024 39.03631448 -36.13619987 38.10149197 -34.1875 37.1875 C-21.99670782 31.27907925 -17.47433965 22.23283883 -12.3671875 10.15234375 C-12.09664551 9.51312988 -11.82610352 8.87391602 -11.54736328 8.21533203 C-10.7845313 6.39490568 -10.04024833 4.56673985 -9.296875 2.73828125 C-7.06755633 -1.96880426 -4.66124963 -1.28211528 0 0 Z " fill="#FC5B1E" transform="translate(270,163)"/>
<path d="M0 0 C7.55408043 3.25204621 12.94001086 9.81877715 15.9609375 17.37109375 C18.23940179 26.64769837 18.45758119 37.03311387 13.51171875 45.40625 C10.20638156 49.59412054 6.82655627 51.06581068 1.5234375 51.93359375 C-5.79779203 50.77761014 -10.9191028 46.22342962 -15.49609375 40.578125 C-21.58105784 31.8743156 -22.08579285 22.65494971 -21.0390625 12.37109375 C-19.66653648 6.90535403 -16.71790063 3.21332669 -11.95703125 0.21875 C-7.8045024 -1.61648169 -4.18365279 -1.29036034 0 0 Z " fill="#040401" transform="translate(319.0390625,113.62890625)"/>
<path d="M0 0 C2.0625 0.4375 2.0625 0.4375 4 1 C3.50633215 7.65680237 1.68301153 12.97660362 -1 19.0625 C-1.40226807 19.98353516 -1.80453613 20.90457031 -2.21899414 21.85351562 C-10.43305716 40.2427792 -22.11049007 55.53588837 -36 70 C-36.53278564 70.5561499 -37.06557129 71.1122998 -37.61450195 71.68530273 C-55.67674929 90.19126475 -78.59241974 101.695798 -103.01538086 109.37084961 C-104.41760623 109.81537351 -105.81383556 110.27902676 -107.20532227 110.75610352 C-114.27798554 113.07480901 -121.30075487 113.94435852 -128.6875 114.6875 C-129.87150391 114.81705078 -131.05550781 114.94660156 -132.27539062 115.08007812 C-144.27288763 116.35040134 -144.27288763 116.35040134 -149 116 C-149.66 115.34 -150.32 114.68 -151 114 C-150.8125 111.9375 -150.8125 111.9375 -150 110 C-147.19061412 109.06353804 -145.06198253 108.77162815 -142.1328125 108.5703125 C-141.17084961 108.4988501 -140.20888672 108.4273877 -139.21777344 108.35375977 C-138.1971582 108.27826904 -137.17654297 108.20277832 -136.125 108.125 C-127.45974299 107.42703246 -119.38419696 106.34422625 -111 104 C-110.16855469 103.80921875 -109.33710938 103.6184375 -108.48046875 103.421875 C-85.25131433 97.85544168 -65.32813258 85.90249954 -47 71 C-46.09121094 70.26652344 -45.18242187 69.53304687 -44.24609375 68.77734375 C-38.38326885 63.81178597 -33.69581766 58.05727868 -29 52 C-28.2575 51.07316406 -27.515 50.14632812 -26.75 49.19140625 C-17.51938143 37.38070159 -10.93577708 24.65913827 -5.5078125 10.7421875 C-2.11646534 2.11646534 -2.11646534 2.11646534 0 0 Z " fill="#FB0000" transform="translate(396,309)"/>
<path d="M0 0 C2.475 0.495 2.475 0.495 5 1 C4.37951821 6.03390873 2.11133847 10.09028105 -0.125 14.5625 C-12.94619856 40.96089424 -19.18864664 68.79231409 -19.18530273 98.10498047 C-19.18748254 100.23295319 -19.20569378 102.36040001 -19.22460938 104.48828125 C-19.2628513 113.83741962 -18.45901062 122.74922238 -17 132 C-16.88487061 132.81178711 -16.76974121 133.62357422 -16.65112305 134.45996094 C-14.5348965 149.37094629 -10.29064691 163.81519511 -3.8828125 177.45703125 C-2.8524268 180.42508916 -2.84514719 182.88017125 -3 186 C-7.58350067 185.48226238 -7.58350067 185.48226238 -9.3359375 183.453125 C-21.19507085 158.30819564 -26.57414965 131.0415422 -26.39111328 103.38427734 C-26.37501004 100.50179766 -26.39108021 97.62071936 -26.41015625 94.73828125 C-26.43050517 78.20605915 -24.43919013 62.46280679 -19.8125 46.5625 C-19.51206787 45.51537842 -19.21163574 44.46825684 -18.90209961 43.3894043 C-14.35982642 27.98867922 -8.49323326 13.64338535 0 0 Z " fill="#FB0000" transform="translate(71,165)"/>
<path d="M0 0 C1 1.8125 1 1.8125 0.8125 4.375 C0 6.8125 0 6.8125 -2 8.8125 C-4.5742746 9.4299203 -7.10416368 9.94538827 -9.70703125 10.40625 C-11.32949345 10.71159428 -12.9517172 11.01820763 -14.57373047 11.32592773 C-15.42884216 11.48632538 -16.28395386 11.64672302 -17.16497803 11.8119812 C-32.21225366 14.65669577 -46.54016282 18.14980068 -60.87426758 23.57421875 C-67.01120656 25.887869 -72.40501829 27.65803505 -79 27.8125 C-79.66 27.1525 -80.32 26.4925 -81 25.8125 C-80.97265625 22.89453125 -80.97265625 22.89453125 -80 19.8125 C-75.89138623 16.61845119 -70.78878823 14.8112476 -66 12.8125 C-65.12762695 12.44157227 -64.25525391 12.07064453 -63.35644531 11.68847656 C-49.62165631 5.93271923 -14.55743653 -8.64347794 0 0 Z " fill="#7F0A09" transform="translate(321,185.1875)"/>
<path d="M0 0 C18.04828257 2.78163495 37.85656018 20.90307947 50.8984375 33.05078125 C52.77927667 34.79527706 54.70618031 36.43467568 56.6875 38.0625 C60.5509489 41.37275299 63.75219821 45.09313788 67 49 C67.46712402 49.54946289 67.93424805 50.09892578 68.41552734 50.66503906 C78.91163424 63.02457336 87.37940806 75.9631903 95.125 90.1875 C95.5159082 90.89447021 95.90681641 91.60144043 96.30957031 92.32983398 C98.26129604 96.01351651 99.50583189 98.79833185 99 103 C97.68 103.33 96.36 103.66 95 104 C91.97917418 99.29529203 89.15714398 94.53333883 86.51318359 89.60742188 C81.6364583 80.54016361 76.23415645 72.18491071 70 64 C69.01773438 62.69869141 69.01773438 62.69869141 68.015625 61.37109375 C64.22443727 56.4911145 60.16352789 51.87463578 56 47.3125 C55.52578613 46.78970459 55.05157227 46.26690918 54.56298828 45.72827148 C48.3353369 39.00473411 41.26091858 33.25345971 34 27.6875 C33.27522461 27.1313501 32.55044922 26.5752002 31.80371094 26.00219727 C26.15943333 21.73723847 20.33027103 17.88576302 14.265625 14.24682617 C7.50190878 10.18595436 3.5979738 6.92943102 0 0 Z " fill="#FB0000" transform="translate(335,82)"/>
<path d="M0 0 C2 2 2 2 2.6875 4.75 C1.87534928 8.58925794 1.34360604 8.81225926 -1.8125 10.875 C-3.54134861 11.91719445 -5.27054017 12.95882013 -7 14 C-23.21713225 25.13622815 -35.0457347 37.67164606 -44.24609375 55.0390625 C-45.92715192 57.87701816 -47.45560932 59.91124467 -50 62 C-53.39154295 61.83849795 -54.58296757 61.41703243 -57 59 C-56.77507395 53.59374162 -54.45114878 49.59458344 -51.75 45.0625 C-51.31034912 44.32249756 -50.87069824 43.58249512 -50.41772461 42.82006836 C-41.5703613 28.41756254 -18.88432538 -1.4163244 0 0 Z " fill="#FFFDF8" transform="translate(177,57)"/>
<path d="M0 0 C0.495 2.475 0.495 2.475 1 5 C-3.31302213 8.11310871 -7.48838398 10.17063252 -12.5625 11.8125 C-13.32208008 12.06040283 -14.08166016 12.30830566 -14.86425781 12.5637207 C-37.84522545 19.80869751 -62.70876899 26.23747781 -87 25 C-87.33 23.02 -87.66 21.04 -88 19 C-84.35440785 16.56960524 -81.23802906 16.43822612 -77 16.0625 C-75.35255306 15.8936371 -73.70542214 15.72166727 -72.05859375 15.546875 C-71.21409668 15.45728516 -70.36959961 15.36769531 -69.49951172 15.27539062 C-49.73582758 13.097872 -17.7062816 -4.19359301 0 0 Z " fill="#FCED21" transform="translate(319,345)"/>
<path d="M0 0 C3.1704747 10.66794946 5.40139276 20.07244858 2 31 C1.34902344 32.05058594 0.69804687 33.10117187 0.02734375 34.18359375 C-2.65459256 38.66631983 -3.12404141 43.32305012 -3.75 48.4375 C-3.93755859 49.82098633 -3.93755859 49.82098633 -4.12890625 51.23242188 C-4.43261474 53.48687338 -4.72260686 55.74218602 -5 58 C-6.71017726 55.4347341 -7.90417811 53.12039035 -9.125 50.3125 C-9.47820312 49.50425781 -9.83140625 48.69601562 -10.1953125 47.86328125 C-10.46085937 47.24839844 -10.72640625 46.63351562 -11 46 C-11.66386719 46.2165625 -12.32773437 46.433125 -13.01171875 46.65625 C-13.89472656 46.9346875 -14.77773438 47.213125 -15.6875 47.5 C-16.55761719 47.7784375 -17.42773438 48.056875 -18.32421875 48.34375 C-21.02200941 49.00539793 -23.23528499 49.20321837 -26 49 C-27.875 47.8125 -27.875 47.8125 -29 46 C-28.92513322 43.00532866 -28.52470858 41.54569692 -26.4375 39.375 C-24.31448163 38.17739989 -22.47906705 37.4557967 -20.1875 36.6875 C-14.79859395 34.76361018 -10.59591921 31.56734829 -7.5625 26.6875 C-6.03643359 19.39629381 -6.87723147 12.77554824 -10 6 C-10.66 5.34 -11.32 4.68 -12 4 C-10.56570999 3.32645501 -9.12742943 2.66140299 -7.6875 2 C-6.88699219 1.62875 -6.08648437 1.2575 -5.26171875 0.875 C-3 0 -3 0 0 0 Z " fill="#F88F16" transform="translate(397,233)"/>
<path d="M0 0 C0.495 2.97 0.495 2.97 1 6 C-3.73179374 10.28880378 -9.24623406 12.83041698 -14.91796875 15.640625 C-16.49835686 16.43119293 -16.49835686 16.43119293 -18.110672 17.23773193 C-20.33072617 18.34659166 -22.55225242 19.45250841 -24.77514648 20.55566406 C-28.18923325 22.25086061 -31.59782684 23.9567327 -35.00585938 25.6640625 C-37.16374566 26.74021889 -39.32193828 27.8157613 -41.48046875 28.890625 C-42.50440231 29.40304749 -43.52833588 29.91546997 -44.58329773 30.44342041 C-46.00035759 31.14480133 -46.00035759 31.14480133 -47.44604492 31.86035156 C-48.27923752 32.27464417 -49.11243011 32.68893677 -49.97087097 33.11578369 C-52 34 -52 34 -54 34 C-56.1932095 28.76066618 -56.1932095 28.76066618 -55.35668945 25.46728516 C-53.67612737 22.41100291 -52.29806054 21.69009586 -49.16796875 20.2109375 C-48.20439453 19.74429688 -47.24082031 19.27765625 -46.24804688 18.796875 C-45.23806641 18.32765625 -44.22808594 17.8584375 -43.1875 17.375 C-41.20108012 16.42603246 -39.21537859 15.47555948 -37.23046875 14.5234375 C-36.34770264 14.11013184 -35.46493652 13.69682617 -34.55541992 13.27099609 C-31.93240902 12.01348003 -31.93240902 12.01348003 -29.2980957 10.34228516 C-27 9 -27 9 -25 9 C-24.67 6.69 -24.34 4.38 -24 2 C-21 2 -21 2 -19.11328125 3.15234375 C-16.96373968 4.29689925 -16.96373968 4.29689925 -14.66796875 3.06640625 C-13.84941406 2.57011719 -13.03085937 2.07382813 -12.1875 1.5625 C-7.48925726 -1.01283306 -5.12011333 -1.44698855 0 0 Z " fill="#A40100" transform="translate(382,160)"/>
<path d="M0 0 C-0.09814453 2.27270508 -0.09814453 2.27270508 -1 5 C-3.1725874 6.4836947 -5.06848789 7.54848112 -7.4296875 8.63671875 C-8.08664108 8.95743851 -8.74359467 9.27815826 -9.42045593 9.6085968 C-11.56445539 10.65131931 -13.71944061 11.66892231 -15.875 12.6875 C-17.36291539 13.40740578 -18.84981148 14.12942199 -20.33569336 14.85351562 C-23.25827741 16.27718594 -26.1838749 17.69431832 -29.11181641 19.10693359 C-33.64922911 21.30523815 -38.11801146 23.61991408 -42.5625 26 C-43.99333851 26.75679611 -45.42433536 27.51329291 -46.85546875 28.26953125 C-49.8139124 29.83699599 -52.76887396 31.41078487 -55.72119141 32.98974609 C-59.22368183 34.86119858 -62.73436459 36.71661625 -66.24923706 38.56469727 C-67.65688122 39.30819819 -69.06182524 40.05683576 -70.46389771 40.81079102 C-72.43537911 41.87019823 -74.41552517 42.91140304 -76.3984375 43.94921875 C-77.55005371 44.56112061 -78.70166992 45.17302246 -79.88818359 45.8034668 C-83.2118206 47.08144773 -84.67034193 47.10170791 -88 46 C-87.85839844 43.71240234 -87.85839844 43.71240234 -87 41 C-84.57128906 39.23681641 -84.57128906 39.23681641 -81.265625 37.6015625 C-80.65629623 37.29351181 -80.04696747 36.98546112 -79.41917419 36.66807556 C-77.37066471 35.63706504 -75.31063024 34.6315376 -73.25 33.625 C-71.80220658 32.90152567 -70.35536875 32.17613632 -68.90942383 31.44897461 C-65.72208165 29.8480215 -62.53044873 28.25603602 -59.33642578 26.66845703 C-50.42779674 22.22800654 -41.58278809 17.66165569 -32.72570801 13.11956787 C-27.84432802 10.61788269 -22.95944387 8.12307228 -18.07421875 5.62890625 C-16.78565224 4.97063087 -16.78565224 4.97063087 -15.47105408 4.29905701 C-14.27821556 3.68998253 -14.27821556 3.68998253 -13.0612793 3.06860352 C-12.37027634 2.71572769 -11.67927338 2.36285187 -10.96733093 1.99928284 C-10.31811172 1.6695195 -9.66889252 1.33975616 -9 1 C-8.31295486 0.61960068 -7.62590973 0.23920135 -6.91804504 -0.15272522 C-4.32285708 -1.29912025 -2.67496204 -0.74304501 0 0 Z " fill="#FA0101" transform="translate(183,271)"/>
<path d="M0 0 C3.51951093 0.49109455 4.97720528 2.12743853 7.6875 4.375 C12.83750574 6.61413293 17.90693849 7.46009717 23.25 5.375 C24.054375 5.045 24.85875 4.715 25.6875 4.375 C28.875 4.0625 28.875 4.0625 31.6875 4.375 C33.6875 7.375 33.6875 7.375 33.5859375 9.88671875 C32.42955228 13.08940303 31.33113059 13.6877072 28.3125 15.1875 C20.77749592 18.5793252 14.01225861 18.49241752 6.3125 15.625 C2.6494921 13.95364346 -0.60828538 12.42814554 -3.3125 9.375 C-4.25 5.75 -4.25 5.75 -4.3125 2.375 C-2.3125 0.375 -2.3125 0.375 0 0 Z " fill="#FEFDF7" transform="translate(98.3125,252.625)"/>
<path d="M0 0 C2.475 0.495 2.475 0.495 5 1 C4.37955239 6.03363141 2.11181063 10.09071144 -0.125 14.5625 C-6.27385341 27.19018133 -11.04817103 40.38042337 -14.4921875 54.00390625 C-14.92107423 55.68976102 -15.44990454 57.34971362 -16 59 C-17.65 59 -19.3 59 -21 59 C-21.19960912 53.38599363 -20.67973035 48.63568837 -19 43.25 C-18.77997314 42.52901123 -18.55994629 41.80802246 -18.33325195 41.06518555 C-13.7752566 26.58130137 -8.03116597 12.90112831 0 0 Z " fill="#FDF1F1" transform="translate(71,165)"/>
<path d="M0 0 C2.0625 0.4375 2.0625 0.4375 4 1 C3.50633428 7.65677366 1.68316483 12.97662488 -1 19.0625 C-1.39864258 19.97483398 -1.79728516 20.88716797 -2.20800781 21.82714844 C-4.79600965 27.61818314 -7.56891626 33.26113772 -10.75 38.75 C-11.27787109 39.68791382 -11.27787109 39.68791382 -11.81640625 40.64477539 C-13.55596526 43.504542 -14.52463691 44.84691697 -17.765625 45.890625 C-18.87164062 45.94476563 -18.87164062 45.94476563 -20 46 C-20.79830533 43.70740648 -21.17876126 42.4735285 -20.30664062 40.16333008 C-19.92701172 39.53837646 -19.54738281 38.91342285 -19.15625 38.26953125 C-18.73738525 37.55700195 -18.31852051 36.84447266 -17.88696289 36.11035156 C-17.42926514 35.35206055 -16.97156738 34.59376953 -16.5 33.8125 C-12.13445862 26.30766705 -8.61783547 18.75423107 -5.47265625 10.671875 C-1.99111901 1.99111901 -1.99111901 1.99111901 0 0 Z " fill="#FDF0F0" transform="translate(396,309)"/>
<path d="M0 0 C1.2065625 0.0309375 1.2065625 0.0309375 2.4375 0.0625 C3.15804934 17.21557743 0.76573982 33.47091403 -3.5625 50.0625 C-4.2225 49.0725 -4.8825 48.0825 -5.5625 47.0625 C-6.8825 47.0625 -8.2025 47.0625 -9.5625 47.0625 C-9.08308921 42.26839206 -8.25869734 37.74615872 -7.125 33.0625 C-5.3415728 25.10232494 -4.77560032 17.10128753 -4.20922852 8.97460938 C-4.13760498 7.96591797 -4.06598145 6.95722656 -3.9921875 5.91796875 C-3.93272949 5.00684326 -3.87327148 4.09571777 -3.81201172 3.15698242 C-3.44269278 0.05679927 -3.16387482 0.07716768 0 0 Z " fill="#FA0000" transform="translate(404.5625,262.9375)"/>
<path d="M0 0 C0.66 0 1.32 0 2 0 C3.4375 2.08203125 3.4375 2.08203125 5 4.8125 C6.60978272 7.60144856 8.21271876 10.31907813 10 13 C10.01171875 15.48828125 10.01171875 15.48828125 9.6875 18.3125 C9.57921875 19.28445312 9.4709375 20.25640625 9.359375 21.2578125 C8.97556882 24.18642056 8.5491233 27.09749112 8 30 C2.94744036 29.36843005 -1.29593201 27.86540627 -6 26 C-4.45592542 17.17358788 -2.8842074 8.5094346 0 0 Z " fill="#BE0100" transform="translate(97,215)"/>
<path d="M0 0 C1.423125 0.2475 1.423125 0.2475 2.875 0.5 C4.875 3.5 4.875 3.5 4.8671875 5.7421875 C3.41839886 9.76913546 0.83477731 12.47155919 -2 15.625 C-2.54269531 16.24503906 -3.08539063 16.86507812 -3.64453125 17.50390625 C-5.12281939 19.18460059 -6.60746625 20.85466299 -8.125 22.5 C-8.61629395 23.05413574 -9.10758789 23.60827148 -9.61376953 24.17919922 C-11.125 25.5 -11.125 25.5 -14.1875 25.8125 C-17.125 25.5 -17.125 25.5 -19.125 23.5 C-19.03907363 18.00852368 -16.51675401 15.15133811 -12.8125 11.4375 C-11.83580282 10.42716821 -10.86052151 9.4154656 -9.88671875 8.40234375 C-9.41524414 7.91942871 -8.94376953 7.43651367 -8.45800781 6.93896484 C-6.91879152 5.32394394 -6.91879152 5.32394394 -4.96484375 2.66015625 C-3.125 0.5 -3.125 0.5 0 0 Z " fill="#070601" transform="translate(179.125,103.5)"/>
<path d="M0 0 C1.55588846 4.77621575 0.27464825 7.52649149 -1.75 12 C-2.28109375 13.19625 -2.8121875 14.3925 -3.359375 15.625 C-4.78238256 18.55232985 -6.13637801 21.332078 -8 24 C-11 25 -11 25 -14 25 C-15.9375 23.9375 -15.9375 23.9375 -17 22 C-16.56075989 16.77618012 -14.67339643 12.4122967 -12.5625 7.6875 C-12.09360352 6.59598633 -12.09360352 6.59598633 -11.61523438 5.48242188 C-8.59012165 -1.38004315 -7.20691611 -1.20115268 0 0 Z " fill="#FE8F65" transform="translate(270,165)"/>
<path d="M0 0 C-0.06738281 2.25073242 -0.06738281 2.25073242 -1 5 C-3.32669827 6.59439618 -5.40264044 7.78572911 -7.921875 8.98828125 C-8.61887512 9.33634323 -9.31587524 9.68440521 -10.03399658 10.04301453 C-11.50931916 10.77497772 -12.98902723 11.498158 -14.47265625 12.21313477 C-16.73764256 13.30653457 -18.9863155 14.42891665 -21.234375 15.55664062 C-22.67100438 16.26478982 -24.10847888 16.97122759 -25.546875 17.67578125 C-26.21789246 18.01007645 -26.88890991 18.34437164 -27.58026123 18.688797 C-31.19383797 20.41426875 -33.97933791 21.41065572 -38 21 C-38 19.35 -38 17.7 -38 16 C-32.51035365 13.08962445 -27.01177243 10.19686514 -21.50585938 7.31738281 C-19.2625914 6.13804981 -17.02881963 4.94275247 -14.796875 3.7421875 C-13.57328794 3.09825236 -12.34935452 2.45497473 -11.125 1.8125 C-10.05507812 1.24144531 -8.98515625 0.67039062 -7.8828125 0.08203125 C-4.70226737 -1.11175059 -3.19253581 -1.01901973 0 0 Z " fill="#FCEFEF" transform="translate(183,271)"/>
<path d="M0 0 C2.475 1.485 2.475 1.485 5 3 C0.91874304 11.79343287 -6.48489407 18.96507179 -13 26 C-13.64453125 26.73347656 -14.2890625 27.46695312 -14.953125 28.22265625 C-16.56883893 29.98940431 -18.06136185 31.59532918 -20 33 C-22.9375 32.9375 -22.9375 32.9375 -25 32 C-24.65691301 29.1885927 -24.43731424 27.46631978 -22.46875 25.3671875 C-21.8190625 24.87476563 -21.169375 24.38234375 -20.5 23.875 C-15.22032401 19.53036502 -11.19410112 14.36994732 -7 9 C-6.29875 8.10667969 -5.5975 7.21335937 -4.875 6.29296875 C-3.24149138 4.20168251 -1.61618845 2.1046827 0 0 Z " fill="#FB0101" transform="translate(374,352)"/>
<path d="M0 0 C3.8425303 0.72047443 5.45767292 1.57152696 8 4.5625 C8.71730941 7.3854596 8.71730941 9.7395404 8 12.5625 C5.45767292 15.55347304 3.8425303 16.40452557 0 17.125 C-4.10389613 16.35551948 -5.53959272 14.89128632 -8 11.5625 C-8.625 8.5625 -8.625 8.5625 -8 5.5625 C-5.53959272 2.23371368 -4.10389613 0.76948052 0 0 Z " fill="#F7F7F7" transform="translate(182,151.4375)"/>
<path d="M0 0 C3.70574176 0.47307342 5.80276041 2.01178073 8.8671875 4.0625 C11.76548015 5.89990817 14.75149292 7.1138722 17.9375 8.375 C17.97991723 10.70794775 17.97842937 13.04202567 17.9375 15.375 C16.9375 16.375 16.9375 16.375 15.1875 16.46484375 C7.6422476 15.95396729 2.24558019 12.68308019 -3.0625 7.375 C-3.25 4.3125 -3.25 4.3125 -3.0625 1.375 C-2.0625 0.375 -2.0625 0.375 0 0 Z " fill="#080701" transform="translate(295.0625,73.625)"/>
<path d="M0 0 C0 1.32 0 2.64 0 4 C-3.57924315 5.98663184 -7.16405741 7.96299036 -10.75 9.9375 C-12.27367187 10.78344727 -12.27367187 10.78344727 -13.828125 11.64648438 C-14.8078125 12.18466797 -15.7875 12.72285156 -16.796875 13.27734375 C-17.69760742 13.77484131 -18.59833984 14.27233887 -19.52636719 14.78491211 C-21.71533087 15.86016598 -23.61870262 16.53103021 -26 17 C-26.12375 16.38125 -26.2475 15.7625 -26.375 15.125 C-26.87197356 12.80879168 -26.87197356 12.80879168 -29 11 C-25.11575468 8.95629488 -21.2159871 6.94417487 -17.3125 4.9375 C-16.20970703 4.35677734 -15.10691406 3.77605469 -13.97070312 3.17773438 C-12.90400391 2.63310547 -11.83730469 2.08847656 -10.73828125 1.52734375 C-9.75899658 1.01937256 -8.77971191 0.51140137 -7.77075195 -0.01196289 C-4.66793495 -1.11841283 -3.10749712 -0.95481755 0 0 Z " fill="#F90000" transform="translate(209,258)"/>
<path d="M0 0 C3.375 -0.5 3.375 -0.5 7 0 C9.97118368 2.59026269 10.88008526 4.16059685 11.4375 8.0625 C10.93947563 11.4063779 10.60055327 12.8188908 8 15 C4.5 15.5 4.5 15.5 1 15 C-0.9375 13.5 -0.9375 13.5 -2 11 C-2.53638404 6.7002763 -2.47360884 3.71041326 0 0 Z " fill="#F5F5F5" transform="translate(306,121)"/>
<path d="M0 0 C1.85657128 5.51778177 -0.07689351 10.71145715 -2 16 C-4.31836065 20.54559078 -7.1361069 24.78239021 -10 29 C-10.66 28.34 -11.32 27.68 -12 27 C-13.31747324 26.30251417 -14.64914193 25.63040043 -16 25 C-5.23404255 7.65957447 -5.23404255 7.65957447 0 0 Z " fill="#FA0200" transform="translate(87,139)"/>
<path d="M0 0 C2.75 0.5625 2.75 0.5625 4.05078125 1.99609375 C8.86410062 9.40234678 12.43265088 17.67672459 12.75 26.5625 C12.09 27.2225 11.43 27.8825 10.75 28.5625 C10.60304688 28.005625 10.45609375 27.44875 10.3046875 26.875 C8.1135746 19.4201791 4.53735094 14.16806718 -1.125 8.875 C-3.25 6.5625 -3.25 6.5625 -3.625 3.8125 C-3.1244457 0.80917422 -2.94925302 0.73731326 0 0 Z " fill="#F6E820" transform="translate(324.25,107.4375)"/>
<path d="M0 0 C5.71428571 0.71428571 5.71428571 0.71428571 7 2 C7.40533058 7.16796495 6.97801865 10.68700747 4 15 C1.5 16.0625 1.5 16.0625 -1 16 C-2.8125 15 -2.8125 15 -4 13 C-4.55702105 7.98681057 -3.98743921 5.06291733 -1 1 C-0.67 0.67 -0.34 0.34 0 0 Z " fill="#FFFDF6" transform="translate(116,128)"/>
<path d="M0 0 C-2.63468189 3.37803857 -5.39904455 3.76862035 -9.5 4.5625 C-11.38332031 4.93568359 -11.38332031 4.93568359 -13.3046875 5.31640625 C-16.40938044 5.89074162 -19.51565798 6.45155921 -22.625 7 C-32.42474734 8.75303398 -41.71997434 11.40124989 -51 15 C-50.88085938 13.15893555 -50.88085938 13.15893555 -50 11 C-41.02066761 6.30328609 -30.34161269 4.55622305 -20.5 2.6875 C-19.16910219 2.42206813 -17.83837204 2.15579425 -16.5078125 1.88867188 C-10.91420316 0.79661326 -5.71712659 -0.15718857 0 0 Z " fill="#F1531B" transform="translate(316,195)"/>
<path d="M0 0 C2.3422109 1.65668576 3.59445476 2.56511494 5 5 C5.21121824 8.75625948 4.64294697 12.30440563 4 16 C3.814375 17.216875 3.62875 18.43375 3.4375 19.6875 C3.2209375 20.8321875 3.2209375 20.8321875 3 22 C-2.875 21.125 -2.875 21.125 -4 20 C-3.94952261 12.93316578 -2.57210214 6.55158093 0 0 Z " fill="#A40100" transform="translate(102,223)"/>
<path d="M0 0 C0.33 0 0.66 0 1 0 C2.27602857 7.37134359 3.4912786 14.50800137 3 22 C2.34 22.66 1.68 23.32 1 24 C-1.625 23.625 -1.625 23.625 -4 23 C-5.57867896 18.55099566 -4.38216598 15.64599201 -2.8359375 11.42578125 C-1.5494443 7.69254632 -0.77689607 3.86620042 0 0 Z " fill="#F6E720" transform="translate(338,138)"/>
<path d="M0 0 C0.73734375 0.22945313 1.4746875 0.45890625 2.234375 0.6953125 C1.6593987 4.44111398 0.09800438 6.32049056 -2.515625 9.0078125 C-3.52882813 10.08482422 -3.52882813 10.08482422 -4.5625 11.18359375 C-6.765625 12.6953125 -6.765625 12.6953125 -9.53125 12.42578125 C-10.26859375 12.18472656 -11.0059375 11.94367188 -11.765625 11.6953125 C-11.26962482 7.47931094 -10.19802039 5.60789944 -7.015625 2.8203125 C-6.34015625 2.20414062 -5.6646875 1.58796875 -4.96875 0.953125 C-2.765625 -0.3046875 -2.765625 -0.3046875 0 0 Z " fill="#FEF3F3" transform="translate(360.765625,372.3046875)"/>
</svg>
