<svg xmlns="http://www.w3.org/2000/svg" viewBox="0 0 320 100">
  <defs>
    <radialGradient id="bb10" cx="50%" cy="30%" r="80%">
      <stop offset="0%" stop-color="#2A1015"/>
      <stop offset="100%" stop-color="#0A0A0C"/>
    </radialGradient>
    <linearGradient id="ba10" x1="0" y1="0" x2="1" y2="0">
      <stop offset="0%" stop-color="#FF6B6B"/>
      <stop offset="100%" stop-color="#E11D48"/>
    </linearGradient>
    <radialGradient id="glb10" cx="50%" cy="0%" rx="50%" ry="40%">
      <stop offset="0%" stop-color="#FF6B6B" stop-opacity="0.08"/>
      <stop offset="100%" stop-color="#FF6B6B" stop-opacity="0"/>
    </radialGradient>
  </defs>
  <rect width="320" height="100" rx="12" fill="url(#bb10)" stroke="#FF6B6B" stroke-opacity="0.1"/>
  <rect y="0" width="320" height="3" rx="2" fill="url(#ba10)"/>
  <ellipse cx="160" cy="5" rx="120" ry="40" fill="url(#glb10)"/>
  <circle cx="280" cy="80" r="18" fill="#FF6B6B" fill-opacity="0.04"/>
  <line x1="24" y1="78" x2="80" y2="78" stroke="#FF6B6B" stroke-opacity="0.08" stroke-width="1"/>
  <text x="24" y="45" font-family="system-ui,sans-serif" font-size="28" font-weight="900" fill="white">v1.0</text>
  <text x="24" y="65" font-family="system-ui,sans-serif" font-size="11" fill="#FF6B6B" fill-opacity="0.5" letter-spacing="1">LAUNCH</text>
  <g transform="translate(265, 25)" opacity="0.25">
    <path d="M12 2C11 2 10 3 10 4L8 28C8 30 9 32 11 33L12 40L13 33C15 32 16 30 16 28L14 4C14 3 13 2 12 2ZM6 30L4 36L8 33L6 30ZM18 30L16 33L20 36L18 30ZM2 34L0 42L6 38L2 34ZM22 34L18 38L24 42L22 34Z" fill="#FF6B6B"/>
  </g>
</svg>