<svg xmlns="http://www.w3.org/2000/svg" viewBox="0 0 320 100">
  <defs>
    <radialGradient id="bb13" cx="50%" cy="30%" r="80%">
      <stop offset="0%" stop-color="#0A201A"/>
      <stop offset="100%" stop-color="#0A0A0C"/>
    </radialGradient>
    <linearGradient id="ba13" x1="0" y1="0" x2="1" y2="0">
      <stop offset="0%" stop-color="#14B8A6"/>
      <stop offset="100%" stop-color="#059669"/>
    </linearGradient>
    <radialGradient id="glb13" cx="50%" cy="0%" rx="50%" ry="40%">
      <stop offset="0%" stop-color="#14B8A6" stop-opacity="0.08"/>
      <stop offset="100%" stop-color="#14B8A6" stop-opacity="0"/>
    </radialGradient>
  </defs>
  <rect width="320" height="100" rx="12" fill="url(#bb13)" stroke="#14B8A6" stroke-opacity="0.1"/>
  <rect y="0" width="320" height="3" rx="2" fill="url(#ba13)"/>
  <ellipse cx="160" cy="5" rx="120" ry="40" fill="url(#glb13)"/>
  <rect x="255" y="72" width="30" height="18" rx="3" fill="#14B8A6" fill-opacity="0.04"/>
  <line x1="24" y1="78" x2="68" y2="78" stroke="#14B8A6" stroke-opacity="0.08" stroke-width="1"/>
  <text x="24" y="45" font-family="system-ui,sans-serif" font-size="28" font-weight="900" fill="white">v1.3</text>
  <text x="24" y="65" font-family="system-ui,sans-serif" font-size="11" fill="#14B8A6" fill-opacity="0.5" letter-spacing="1">NEWS</text>
  <g transform="translate(265, 25)" opacity="0.25">
    <rect x="0" y="0" width="24" height="32" rx="2" fill="none" stroke="#14B8A6" stroke-width="2"/>
    <line x1="4" y1="7" x2="20" y2="7" stroke="#14B8A6" stroke-width="1.5"/>
    <line x1="4" y1="12" x2="20" y2="12" stroke="#14B8A6" stroke-width="1"/>
    <line x1="4" y1="16" x2="14" y2="16" stroke="#14B8A6" stroke-width="1"/>
    <rect x="4" y="20" width="8" height="8" rx="1" fill="#14B8A6" fill-opacity="0.3"/>
    <line x1="14" y1="22" x2="20" y2="22" stroke="#14B8A6" stroke-width="1"/>
    <line x1="14" y1="26" x2="20" y2="26" stroke="#14B8A6" stroke-width="1"/>
  </g>
</svg>