<svg xmlns="http://www.w3.org/2000/svg" viewBox="0 0 320 100">
  <defs>
    <radialGradient id="bb14" cx="50%" cy="30%" r="80%">
      <stop offset="0%" stop-color="#1A1028"/>
      <stop offset="100%" stop-color="#0A0A0C"/>
    </radialGradient>
    <linearGradient id="ba14" x1="0" y1="0" x2="1" y2="0">
      <stop offset="0%" stop-color="#8B5CF6"/>
      <stop offset="100%" stop-color="#7C3AED"/>
    </linearGradient>
    <radialGradient id="glb14" cx="50%" cy="0%" rx="50%" ry="40%">
      <stop offset="0%" stop-color="#8B5CF6" stop-opacity="0.08"/>
      <stop offset="100%" stop-color="#8B5CF6" stop-opacity="0"/>
    </radialGradient>
  </defs>
  <rect width="320" height="100" rx="12" fill="url(#bb14)" stroke="#8B5CF6" stroke-opacity="0.1"/>
  <rect y="0" width="320" height="3" rx="2" fill="url(#ba14)"/>
  <ellipse cx="160" cy="5" rx="120" ry="40" fill="url(#glb14)"/>
  <circle cx="270" cy="82" r="12" fill="#8B5CF6" fill-opacity="0.04"/>
  <line x1="24" y1="78" x2="85" y2="78" stroke="#8B5CF6" stroke-opacity="0.08" stroke-width="1"/>
  <text x="24" y="45" font-family="system-ui,sans-serif" font-size="28" font-weight="900" fill="white">v1.4</text>
  <text x="24" y="65" font-family="system-ui,sans-serif" font-size="11" fill="#8B5CF6" fill-opacity="0.5" letter-spacing="1">REFERRALS</text>
  <g transform="translate(265, 25)" opacity="0.25">
    <circle cx="8" cy="8" r="5" fill="none" stroke="#8B5CF6" stroke-width="2"/>
    <path d="M8 14C3 14 0 17 0 21L0 24L16 24L16 21C16 17 13 14 8 14Z" fill="#8B5CF6" fill-opacity="0.4"/>
    <circle cx="20" cy="10" r="4" fill="none" stroke="#8B5CF6" stroke-width="1.5"/>
    <path d="M20 15C16 15 14 17 14 20L14 22L26 22L26 20C26 17 24 15 20 15Z" fill="#8B5CF6" fill-opacity="0.25"/>
  </g>
</svg>