<svg xmlns="http://www.w3.org/2000/svg" viewBox="0 0 320 100">
  <defs>
    <radialGradient id="bb20" cx="50%" cy="30%" r="80%">
      <stop offset="0%" stop-color="#220A0A"/>
      <stop offset="100%" stop-color="#0A0A0C"/>
    </radialGradient>
    <linearGradient id="ba20" x1="0" y1="0" x2="1" y2="0">
      <stop offset="0%" stop-color="#DC2626"/>
      <stop offset="100%" stop-color="#B91C1C"/>
    </linearGradient>
    <radialGradient id="glb20" cx="50%" cy="0%" rx="50%" ry="40%">
      <stop offset="0%" stop-color="#DC2626" stop-opacity="0.08"/>
      <stop offset="100%" stop-color="#DC2626" stop-opacity="0"/>
    </radialGradient>
  </defs>
  <rect width="320" height="100" rx="12" fill="url(#bb20)" stroke="#DC2626" stroke-opacity="0.1"/>
  <rect y="0" width="320" height="3" rx="2" fill="url(#ba20)"/>
  <ellipse cx="160" cy="5" rx="120" ry="40" fill="url(#glb20)"/>
  <rect x="248" y="70" width="44" height="22" rx="4" fill="#DC2626" fill-opacity="0.04"/>
  <line x1="24" y1="78" x2="90" y2="78" stroke="#DC2626" stroke-opacity="0.08" stroke-width="1"/>
  <text x="24" y="45" font-family="system-ui,sans-serif" font-size="28" font-weight="900" fill="white">v2.0</text>
  <text x="24" y="65" font-family="system-ui,sans-serif" font-size="11" fill="#DC2626" fill-opacity="0.5" letter-spacing="1">OPEN BETA</text>
  <g transform="translate(265, 25)" opacity="0.25">
    <path d="M4 0L4 28L6 28L6 2L8 2L22 18L22 28L24 28L24 0L22 0L22 16L8 0Z" fill="#DC2626"/>
    <path d="M6 28L6 32L24 32L24 28Z" fill="#DC2626" fill-opacity="0.5"/>
  </g>
</svg>