<svg xmlns="http://www.w3.org/2000/svg" viewBox="0 0 320 100">
  <defs>
    <radialGradient id="bb21" cx="50%" cy="30%" r="80%">
      <stop offset="0%" stop-color="#0A1A22"/>
      <stop offset="100%" stop-color="#0A0A0C"/>
    </radialGradient>
    <linearGradient id="ba21" x1="0" y1="0" x2="1" y2="0">
      <stop offset="0%" stop-color="#06B6D4"/>
      <stop offset="100%" stop-color="#0891B2"/>
    </linearGradient>
    <radialGradient id="glb21" cx="50%" cy="0%" rx="50%" ry="40%">
      <stop offset="0%" stop-color="#06B6D4" stop-opacity="0.08"/>
      <stop offset="100%" stop-color="#06B6D4" stop-opacity="0"/>
    </radialGradient>
  </defs>
  <rect width="320" height="100" rx="12" fill="url(#bb21)" stroke="#06B6D4" stroke-opacity="0.1"/>
  <rect y="0" width="320" height="3" rx="2" fill="url(#ba21)"/>
  <ellipse cx="160" cy="5" rx="120" ry="40" fill="url(#glb21)"/>
  <circle cx="275" cy="80" r="15" fill="#06B6D4" fill-opacity="0.04"/>
  <line x1="24" y1="78" x2="100" y2="78" stroke="#06B6D4" stroke-opacity="0.08" stroke-width="1"/>
  <text x="24" y="45" font-family="system-ui,sans-serif" font-size="28" font-weight="900" fill="white">v2.1</text>
  <text x="24" y="65" font-family="system-ui,sans-serif" font-size="11" fill="#06B6D4" fill-opacity="0.5" letter-spacing="1">LEADERBOARD</text>
  <g transform="translate(265, 25)" opacity="0.25">
    <path d="M4 4L4 0L20 0L20 4L14 4L14 8C17 9 20 12 20 16L20 18L4 18L4 16C4 12 7 9 10 8L10 4Z" fill="#06B6D4"/>
    <rect x="6" y="18" width="12" height="2" rx="1" fill="#06B6D4"/>
    <rect x="4" y="20" width="16" height="3" rx="1" fill="#06B6D4" fill-opacity="0.6"/>
    <path d="M0 6L4 8L4 4Z" fill="#06B6D4" fill-opacity="0.5"/>
    <path d="M24 6L20 8L20 4Z" fill="#06B6D4" fill-opacity="0.5"/>
  </g>
</svg>