<svg xmlns="http://www.w3.org/2000/svg" viewBox="0 0 320 100">
  <defs>
    <radialGradient id="bb23" cx="50%" cy="30%" r="80%">
      <stop offset="0%" stop-color="#220A18"/>
      <stop offset="100%" stop-color="#0A0A0C"/>
    </radialGradient>
    <linearGradient id="ba23" x1="0" y1="0" x2="1" y2="0">
      <stop offset="0%" stop-color="#EC4899"/>
      <stop offset="100%" stop-color="#BE185D"/>
    </linearGradient>
    <radialGradient id="glb23" cx="50%" cy="0%" rx="50%" ry="40%">
      <stop offset="0%" stop-color="#EC4899" stop-opacity="0.08"/>
      <stop offset="100%" stop-color="#EC4899" stop-opacity="0"/>
    </radialGradient>
  </defs>
  <rect width="320" height="100" rx="12" fill="url(#bb23)" stroke="#EC4899" stroke-opacity="0.1"/>
  <rect y="0" width="320" height="3" rx="2" fill="url(#ba23)"/>
  <ellipse cx="160" cy="5" rx="120" ry="40" fill="url(#glb23)"/>
  <circle cx="280" cy="78" r="16" fill="#EC4899" fill-opacity="0.04"/>
  <line x1="24" y1="78" x2="105" y2="78" stroke="#EC4899" stroke-opacity="0.08" stroke-width="1"/>
  <text x="24" y="45" font-family="system-ui,sans-serif" font-size="28" font-weight="900" fill="white">v2.3</text>
  <text x="24" y="65" font-family="system-ui,sans-serif" font-size="11" fill="#EC4899" fill-opacity="0.5" letter-spacing="1">CRASH ARENA</text>
  <g transform="translate(265, 25)" opacity="0.25">
    <circle cx="12" cy="16" r="14" fill="none" stroke="#EC4899" stroke-width="2"/>
    <circle cx="12" cy="16" r="9" fill="none" stroke="#EC4899" stroke-width="1" stroke-dasharray="3 2"/>
    <polygon points="12,6 15,13 12,11 9,13" fill="#EC4899"/>
    <polygon points="12,26 9,19 12,21 15,19" fill="#EC4899"/>
    <polygon points="2,16 9,13 7,16 9,19" fill="#EC4899" fill-opacity="0.6"/>
    <polygon points="22,16 15,13 17,16 15,19" fill="#EC4899" fill-opacity="0.6"/>
  </g>
</svg>