<svg xmlns="http://www.w3.org/2000/svg" viewBox="0 0 320 100">
  <defs>
    <radialGradient id="bb24" cx="50%" cy="30%" r="80%">
      <stop offset="0%" stop-color="#151820"/>
      <stop offset="100%" stop-color="#0A0A0C"/>
    </radialGradient>
    <linearGradient id="ba24" x1="0" y1="0" x2="1" y2="0">
      <stop offset="0%" stop-color="#94A3B8"/>
      <stop offset="100%" stop-color="#64748B"/>
    </linearGradient>
    <radialGradient id="glb24" cx="50%" cy="0%" rx="50%" ry="40%">
      <stop offset="0%" stop-color="#94A3B8" stop-opacity="0.08"/>
      <stop offset="100%" stop-color="#94A3B8" stop-opacity="0"/>
    </radialGradient>
  </defs>
  <rect width="320" height="100" rx="12" fill="url(#bb24)" stroke="#94A3B8" stroke-opacity="0.1"/>
  <rect y="0" width="320" height="3" rx="2" fill="url(#ba24)"/>
  <ellipse cx="160" cy="5" rx="120" ry="40" fill="url(#glb24)"/>
  <circle cx="288" cy="82" r="10" fill="#94A3B8" fill-opacity="0.04"/>
  <line x1="24" y1="78" x2="72" y2="78" stroke="#94A3B8" stroke-opacity="0.08" stroke-width="1"/>
  <text x="24" y="45" font-family="system-ui,sans-serif" font-size="28" font-weight="900" fill="white">v2.4</text>
  <text x="24" y="65" font-family="system-ui,sans-serif" font-size="11" fill="#94A3B8" fill-opacity="0.5" letter-spacing="1">POLISH</text>
  <g transform="translate(265, 25)" opacity="0.25">
    <path d="M12 0L13.5 8L12 6L10.5 8Z" fill="#94A3B8"/>
    <path d="M12 32L13.5 24L12 26L10.5 24Z" fill="#94A3B8"/>
    <path d="M0 16L8 14.5L6 16L8 17.5Z" fill="#94A3B8"/>
    <path d="M24 16L16 14.5L18 16L16 17.5Z" fill="#94A3B8"/>
    <path d="M4 4L7 10L5 9L4 11Z" fill="#94A3B8" fill-opacity="0.6"/>
    <path d="M20 4L17 10L19 9L20 11Z" fill="#94A3B8" fill-opacity="0.6"/>
    <path d="M4 28L7 22L5 23L4 21Z" fill="#94A3B8" fill-opacity="0.6"/>
    <path d="M20 28L17 22L19 23L20 21Z" fill="#94A3B8" fill-opacity="0.6"/>
    <circle cx="12" cy="16" r="2" fill="#94A3B8"/>
  </g>
</svg>