<svg xmlns="http://www.w3.org/2000/svg" viewBox="0 0 320 100">
  <defs>
    <radialGradient id="bb261" cx="50%" cy="30%" r="80%">
      <stop offset="0%" stop-color="#0A1525"/>
      <stop offset="100%" stop-color="#0A0A0C"/>
    </radialGradient>
    <linearGradient id="ba261" x1="0" y1="0" x2="1" y2="0">
      <stop offset="0%" stop-color="#10B981"/>
      <stop offset="100%" stop-color="#34D399"/>
    </linearGradient>
    <radialGradient id="glb261" cx="50%" cy="0%" rx="50%" ry="40%">
      <stop offset="0%" stop-color="#10B981" stop-opacity="0.08"/>
      <stop offset="100%" stop-color="#10B981" stop-opacity="0"/>
    </radialGradient>
  </defs>
  <rect width="320" height="100" rx="12" fill="url(#bb261)" stroke="#10B981" stroke-opacity="0.1"/>
  <rect y="0" width="320" height="3" rx="2" fill="url(#ba261)"/>
  <ellipse cx="160" cy="5" rx="120" ry="40" fill="url(#glb261)"/>
  <line x1="24" y1="78" x2="110" y2="78" stroke="#10B981" stroke-opacity="0.08" stroke-width="1"/>
  <text x="24" y="45" font-family="system-ui,sans-serif" font-size="28" font-weight="900" fill="white">v2.6.1</text>
  <text x="24" y="65" font-family="system-ui,sans-serif" font-size="11" fill="#10B981" fill-opacity="0.5" letter-spacing="1">BUG FIX</text>
  <!-- Wrench icon -->
  <g transform="translate(260, 20)" opacity="0.2">
    <path d="M14.7 6.3a1 1 0 0 0 0 1.4l1.6 1.6a1 1 0 0 0 1.4 0l3.77-3.77a6 6 0 0 1-7.94 7.94l-6.91 6.91a2.12 2.12 0 0 1-3-3l6.91-6.91a6 6 0 0 1 7.94-7.94l-3.76 3.76z" fill="none" stroke="#10B981" stroke-width="2"/>
  </g>
  <g transform="translate(275, 60)" opacity="0.12">
    <circle cx="8" cy="8" r="7" fill="none" stroke="#34D399" stroke-width="1.2"/>
    <path d="M5 8l2.5 2.5 4-5" fill="none" stroke="#34D399" stroke-width="1.2" stroke-linecap="round" stroke-linejoin="round"/>
  </g>
</svg>
