<svg xmlns="http://www.w3.org/2000/svg" viewBox="0 0 320 100">
  <defs>
    <radialGradient id="bb26" cx="50%" cy="30%" r="80%">
      <stop offset="0%" stop-color="#0A1525"/>
      <stop offset="100%" stop-color="#0A0A0C"/>
    </radialGradient>
    <linearGradient id="ba26" x1="0" y1="0" x2="1" y2="0">
      <stop offset="0%" stop-color="#3B82F6"/>
      <stop offset="100%" stop-color="#06B6D4"/>
    </linearGradient>
    <radialGradient id="glb26" cx="50%" cy="0%" rx="50%" ry="40%">
      <stop offset="0%" stop-color="#3B82F6" stop-opacity="0.08"/>
      <stop offset="100%" stop-color="#3B82F6" stop-opacity="0"/>
    </radialGradient>
  </defs>
  <rect width="320" height="100" rx="12" fill="url(#bb26)" stroke="#3B82F6" stroke-opacity="0.1"/>
  <rect y="0" width="320" height="3" rx="2" fill="url(#ba26)"/>
  <ellipse cx="160" cy="5" rx="120" ry="40" fill="url(#glb26)"/>
  <rect x="250" y="72" width="40" height="20" rx="4" fill="#3B82F6" fill-opacity="0.04"/>
  <line x1="24" y1="78" x2="110" y2="78" stroke="#3B82F6" stroke-opacity="0.08" stroke-width="1"/>
  <text x="24" y="45" font-family="system-ui,sans-serif" font-size="28" font-weight="900" fill="white">v2.6</text>
  <text x="24" y="65" font-family="system-ui,sans-serif" font-size="11" fill="#3B82F6" fill-opacity="0.5" letter-spacing="1">CRASH UPDATE</text>
  <g transform="translate(265, 25)" opacity="0.25">
    <path d="M12 2C11 2 10 3 10 4L8 28C8 30 9 32 11 33L12 40L13 33C15 32 16 30 16 28L14 4C14 3 13 2 12 2Z" fill="#3B82F6"/>
    <path d="M6 30L4 36L8 33Z" fill="#06B6D4"/>
    <path d="M18 30L16 33L20 36Z" fill="#06B6D4"/>
    <path d="M2 34L0 42L6 38Z" fill="#3B82F6" fill-opacity="0.6"/>
    <path d="M22 34L18 38L24 42Z" fill="#3B82F6" fill-opacity="0.6"/>
  </g>
</svg>