<svg xmlns="http://www.w3.org/2000/svg" viewBox="0 0 320 180">
  <defs>
    <radialGradient id="bg10" cx="50%" cy="30%" r="80%">
      <stop offset="0%" stop-color="#2A1015"/>
      <stop offset="100%" stop-color="#0A0A0C"/>
    </radialGradient>
    <linearGradient id="ac10" x1="0" y1="0" x2="1" y2="0">
      <stop offset="0%" stop-color="#FF6B6B"/>
      <stop offset="100%" stop-color="#E11D48"/>
    </linearGradient>
    <radialGradient id="gl10" cx="50%" cy="20%" rx="40%" ry="30%">
      <stop offset="0%" stop-color="#FF6B6B" stop-opacity="0.12"/>
      <stop offset="100%" stop-color="#FF6B6B" stop-opacity="0"/>
    </radialGradient>
  </defs>
  <rect width="320" height="180" rx="16" fill="url(#bg10)" stroke="#FF6B6B" stroke-opacity="0.1"/>
  <rect y="0" width="320" height="4" rx="2" fill="url(#ac10)"/>
  <ellipse cx="160" cy="30" rx="140" ry="60" fill="url(#gl10)"/>
  <!-- Floating circles -->
  <circle cx="50" cy="40" r="20" fill="none" stroke="#FF6B6B" stroke-opacity="0.08" stroke-width="1"/>
  <circle cx="280" cy="140" r="30" fill="none" stroke="#E11D48" stroke-opacity="0.06" stroke-width="1"/>
  <circle cx="30" cy="150" r="12" fill="none" stroke="#FF6B6B" stroke-opacity="0.05" stroke-width="1"/>
  <!-- Diagonal lines -->
  <line x1="240" y1="20" x2="300" y2="80" stroke="#FF6B6B" stroke-opacity="0.04" stroke-width="1"/>
  <line x1="250" y1="20" x2="310" y2="80" stroke="#E11D48" stroke-opacity="0.04" stroke-width="1"/>
  <!-- Dot constellation -->
  <circle cx="70" cy="70" r="1.5" fill="#FF6B6B" fill-opacity="0.15"/>
  <circle cx="85" cy="65" r="1" fill="#FF6B6B" fill-opacity="0.1"/>
  <circle cx="75" cy="85" r="1.2" fill="#E11D48" fill-opacity="0.12"/>
  <!-- Rocket icon -->
  <g transform="translate(255, 50)" opacity="0.2">
    <path d="M20 0 L26 18 L20 38 L14 18 Z" fill="#FF6B6B"/>
    <path d="M10 26 L6 36 L14 30 Z" fill="#E11D48"/>
    <path d="M30 26 L34 36 L26 30 Z" fill="#E11D48"/>
    <circle cx="20" cy="15" r="3.5" fill="#1A0A0D"/>
    <path d="M15 38 L20 44 L25 38" fill="none" stroke="#FF6B6B" stroke-width="2" stroke-linecap="round"/>
  </g>
  <text x="160" y="100" text-anchor="middle" font-family="system-ui,sans-serif" font-size="52" font-weight="900" fill="white">v1.0</text>
  <text x="160" y="155" text-anchor="middle" font-family="system-ui,sans-serif" font-size="11" fill="#FF6B6B" fill-opacity="0.4" letter-spacing="3">LAUNCH</text>
</svg>