<svg xmlns="http://www.w3.org/2000/svg" viewBox="0 0 320 180">
  <defs>
    <radialGradient id="bg11" cx="50%" cy="30%" r="80%">
      <stop offset="0%" stop-color="#151525"/>
      <stop offset="100%" stop-color="#08080E"/>
    </radialGradient>
    <linearGradient id="ac11" x1="0" y1="0" x2="1" y2="0">
      <stop offset="0%" stop-color="#6366F1"/>
      <stop offset="100%" stop-color="#4F46E5"/>
    </linearGradient>
    <radialGradient id="gl11" cx="50%" cy="20%" rx="40%" ry="30%">
      <stop offset="0%" stop-color="#6366F1" stop-opacity="0.10"/>
      <stop offset="100%" stop-color="#6366F1" stop-opacity="0"/>
    </radialGradient>
  </defs>
  <rect width="320" height="180" rx="16" fill="url(#bg11)" stroke="#6366F1" stroke-opacity="0.1"/>
  <rect y="0" width="320" height="4" rx="2" fill="url(#ac11)"/>
  <ellipse cx="160" cy="30" rx="140" ry="60" fill="url(#gl11)"/>
  <!-- Grid pattern -->
  <g stroke="#6366F1" stroke-opacity="0.04" stroke-width="0.5">
    <line x1="20" y1="30" x2="20" y2="160"/><line x1="50" y1="30" x2="50" y2="160"/>
    <line x1="80" y1="30" x2="80" y2="160"/><line x1="110" y1="30" x2="110" y2="160"/>
    <line x1="20" y1="50" x2="110" y2="50"/><line x1="20" y1="80" x2="110" y2="80"/>
    <line x1="20" y1="110" x2="110" y2="110"/><line x1="20" y1="140" x2="110" y2="140"/>
  </g>
  <!-- Floating circles -->
  <circle cx="270" cy="45" r="18" fill="none" stroke="#4F46E5" stroke-opacity="0.08" stroke-width="1"/>
  <circle cx="290" cy="140" r="25" fill="none" stroke="#6366F1" stroke-opacity="0.05" stroke-width="1"/>
  <!-- Phone icon -->
  <g transform="translate(255, 55)" opacity="0.2">
    <rect x="5" y="0" width="22" height="40" rx="4" fill="none" stroke="#6366F1" stroke-width="2"/>
    <rect x="9" y="5" width="14" height="24" rx="1" fill="#6366F1" fill-opacity="0.3"/>
    <circle cx="16" cy="35" r="2" fill="#6366F1" fill-opacity="0.5"/>
  </g>
  <!-- Dot constellation -->
  <circle cx="270" cy="85" r="1" fill="#6366F1" fill-opacity="0.12"/>
  <circle cx="282" cy="78" r="1.5" fill="#4F46E5" fill-opacity="0.1"/>
  <circle cx="276" cy="95" r="1" fill="#6366F1" fill-opacity="0.08"/>
  <text x="160" y="100" text-anchor="middle" font-family="system-ui,sans-serif" font-size="52" font-weight="900" fill="white">v1.1</text>
  <text x="160" y="155" text-anchor="middle" font-family="system-ui,sans-serif" font-size="11" fill="#6366F1" fill-opacity="0.4" letter-spacing="3">MOBILE</text>
</svg>