<svg xmlns="http://www.w3.org/2000/svg" viewBox="0 0 320 180">
  <defs>
    <radialGradient id="bg12" cx="50%" cy="30%" r="80%">
      <stop offset="0%" stop-color="#1E1508"/>
      <stop offset="100%" stop-color="#0C0A06"/>
    </radialGradient>
    <linearGradient id="ac12" x1="0" y1="0" x2="1" y2="0">
      <stop offset="0%" stop-color="#F59E0B"/>
      <stop offset="100%" stop-color="#EA580C"/>
    </linearGradient>
    <radialGradient id="gl12" cx="50%" cy="20%" rx="40%" ry="30%">
      <stop offset="0%" stop-color="#F59E0B" stop-opacity="0.11"/>
      <stop offset="100%" stop-color="#F59E0B" stop-opacity="0"/>
    </radialGradient>
  </defs>
  <rect width="320" height="180" rx="16" fill="url(#bg12)" stroke="#F59E0B" stroke-opacity="0.1"/>
  <rect y="0" width="320" height="4" rx="2" fill="url(#ac12)"/>
  <ellipse cx="160" cy="30" rx="140" ry="60" fill="url(#gl12)"/>
  <!-- Curved paths -->
  <path d="M0 140 Q80 100 160 130 T320 110" fill="none" stroke="#F59E0B" stroke-opacity="0.04" stroke-width="1"/>
  <path d="M0 155 Q80 115 160 145 T320 125" fill="none" stroke="#EA580C" stroke-opacity="0.03" stroke-width="1"/>
  <!-- Hexagons -->
  <polygon points="50,35 60,30 70,35 70,45 60,50 50,45" fill="none" stroke="#F59E0B" stroke-opacity="0.07" stroke-width="0.8"/>
  <polygon points="35,60 42,56 49,60 49,68 42,72 35,68" fill="none" stroke="#EA580C" stroke-opacity="0.05" stroke-width="0.8"/>
  <!-- Floating circles -->
  <circle cx="285" cy="50" r="15" fill="none" stroke="#F59E0B" stroke-opacity="0.06" stroke-width="1"/>
  <!-- Gift box icon -->
  <g transform="translate(250, 50)" opacity="0.2">
    <rect x="4" y="16" width="32" height="22" rx="2" fill="none" stroke="#F59E0B" stroke-width="2"/>
    <rect x="0" y="10" width="40" height="8" rx="2" fill="none" stroke="#EA580C" stroke-width="2"/>
    <line x1="20" y1="10" x2="20" y2="38" stroke="#F59E0B" stroke-width="2"/>
    <path d="M20 10 Q12 0 8 4 Q4 8 12 10" fill="none" stroke="#F59E0B" stroke-width="1.5"/>
    <path d="M20 10 Q28 0 32 4 Q36 8 28 10" fill="none" stroke="#F59E0B" stroke-width="1.5"/>
  </g>
  <!-- Dots -->
  <circle cx="290" cy="130" r="1.2" fill="#F59E0B" fill-opacity="0.12"/>
  <circle cx="300" cy="120" r="1" fill="#EA580C" fill-opacity="0.1"/>
  <circle cx="280" cy="140" r="1.5" fill="#F59E0B" fill-opacity="0.08"/>
  <text x="160" y="100" text-anchor="middle" font-family="system-ui,sans-serif" font-size="52" font-weight="900" fill="white">v1.2</text>
  <text x="160" y="155" text-anchor="middle" font-family="system-ui,sans-serif" font-size="11" fill="#F59E0B" fill-opacity="0.4" letter-spacing="3">CASES</text>
</svg>