<svg xmlns="http://www.w3.org/2000/svg" viewBox="0 0 320 180">
  <defs>
    <radialGradient id="bg13" cx="50%" cy="30%" r="80%">
      <stop offset="0%" stop-color="#0A1E1A"/>
      <stop offset="100%" stop-color="#060E0C"/>
    </radialGradient>
    <linearGradient id="ac13" x1="0" y1="0" x2="1" y2="0">
      <stop offset="0%" stop-color="#14B8A6"/>
      <stop offset="100%" stop-color="#059669"/>
    </linearGradient>
    <radialGradient id="gl13" cx="50%" cy="20%" rx="40%" ry="30%">
      <stop offset="0%" stop-color="#14B8A6" stop-opacity="0.10"/>
      <stop offset="100%" stop-color="#14B8A6" stop-opacity="0"/>
    </radialGradient>
  </defs>
  <rect width="320" height="180" rx="16" fill="url(#bg13)" stroke="#14B8A6" stroke-opacity="0.1"/>
  <rect y="0" width="320" height="4" rx="2" fill="url(#ac13)"/>
  <ellipse cx="160" cy="30" rx="140" ry="60" fill="url(#gl13)"/>
  <!-- Diagonal lines -->
  <line x1="20" y1="160" x2="80" y2="100" stroke="#14B8A6" stroke-opacity="0.05" stroke-width="0.8"/>
  <line x1="30" y1="160" x2="90" y2="100" stroke="#059669" stroke-opacity="0.04" stroke-width="0.8"/>
  <line x1="40" y1="160" x2="100" y2="100" stroke="#14B8A6" stroke-opacity="0.03" stroke-width="0.8"/>
  <!-- Dot constellation upper-left -->
  <circle cx="40" cy="35" r="1.5" fill="#14B8A6" fill-opacity="0.15"/>
  <circle cx="55" cy="28" r="1" fill="#14B8A6" fill-opacity="0.1"/>
  <circle cx="48" cy="48" r="1.2" fill="#059669" fill-opacity="0.12"/>
  <circle cx="65" cy="42" r="0.8" fill="#14B8A6" fill-opacity="0.08"/>
  <line x1="40" y1="35" x2="55" y2="28" stroke="#14B8A6" stroke-opacity="0.06" stroke-width="0.5"/>
  <line x1="55" y1="28" x2="65" y2="42" stroke="#14B8A6" stroke-opacity="0.05" stroke-width="0.5"/>
  <!-- Floating circles -->
  <circle cx="280" cy="130" r="22" fill="none" stroke="#14B8A6" stroke-opacity="0.06" stroke-width="1"/>
  <circle cx="295" cy="45" r="10" fill="none" stroke="#059669" stroke-opacity="0.07" stroke-width="1"/>
  <!-- Newspaper icon -->
  <g transform="translate(250, 48)" opacity="0.2">
    <rect x="2" y="2" width="36" height="30" rx="3" fill="none" stroke="#14B8A6" stroke-width="2"/>
    <line x1="8" y1="10" x2="24" y2="10" stroke="#14B8A6" stroke-width="2"/>
    <line x1="8" y1="16" x2="32" y2="16" stroke="#059669" stroke-width="1.5"/>
    <line x1="8" y1="21" x2="32" y2="21" stroke="#059669" stroke-width="1.5"/>
    <line x1="8" y1="26" x2="20" y2="26" stroke="#059669" stroke-width="1.5"/>
    <rect x="26" y="8" width="8" height="8" rx="1" fill="#14B8A6" fill-opacity="0.3"/>
  </g>
  <text x="160" y="100" text-anchor="middle" font-family="system-ui,sans-serif" font-size="52" font-weight="900" fill="white">v1.3</text>
  <text x="160" y="155" text-anchor="middle" font-family="system-ui,sans-serif" font-size="11" fill="#14B8A6" fill-opacity="0.4" letter-spacing="3">NEWS</text>
</svg>