<svg xmlns="http://www.w3.org/2000/svg" viewBox="0 0 320 180">
  <defs>
    <radialGradient id="bg14" cx="50%" cy="30%" r="80%">
      <stop offset="0%" stop-color="#1A1028"/>
      <stop offset="100%" stop-color="#0A080E"/>
    </radialGradient>
    <linearGradient id="ac14" x1="0" y1="0" x2="1" y2="0">
      <stop offset="0%" stop-color="#8B5CF6"/>
      <stop offset="100%" stop-color="#7C3AED"/>
    </linearGradient>
    <radialGradient id="gl14" cx="50%" cy="20%" rx="40%" ry="30%">
      <stop offset="0%" stop-color="#8B5CF6" stop-opacity="0.10"/>
      <stop offset="100%" stop-color="#8B5CF6" stop-opacity="0"/>
    </radialGradient>
  </defs>
  <rect width="320" height="180" rx="16" fill="url(#bg14)" stroke="#8B5CF6" stroke-opacity="0.1"/>
  <rect y="0" width="320" height="4" rx="2" fill="url(#ac14)"/>
  <ellipse cx="160" cy="30" rx="140" ry="60" fill="url(#gl14)"/>
  <!-- Hexagon pattern -->
  <polygon points="280,30 290,25 300,30 300,40 290,45 280,40" fill="none" stroke="#8B5CF6" stroke-opacity="0.06" stroke-width="0.8"/>
  <polygon points="295,45 305,40 315,45 315,55 305,60 295,55" fill="none" stroke="#7C3AED" stroke-opacity="0.05" stroke-width="0.8"/>
  <polygon points="265,45 275,40 285,45 285,55 275,60 265,55" fill="none" stroke="#8B5CF6" stroke-opacity="0.04" stroke-width="0.8"/>
  <!-- Curved connection paths -->
  <path d="M20 130 Q60 110 100 130 Q140 150 180 130" fill="none" stroke="#8B5CF6" stroke-opacity="0.04" stroke-width="0.8"/>
  <path d="M140 140 Q180 120 220 140 Q260 160 300 140" fill="none" stroke="#7C3AED" stroke-opacity="0.03" stroke-width="0.8"/>
  <!-- Floating circles -->
  <circle cx="40" cy="50" r="16" fill="none" stroke="#8B5CF6" stroke-opacity="0.07" stroke-width="1"/>
  <circle cx="55" cy="140" r="20" fill="none" stroke="#7C3AED" stroke-opacity="0.05" stroke-width="1"/>
  <!-- People/link icon -->
  <g transform="translate(250, 52)" opacity="0.2">
    <circle cx="12" cy="10" r="6" fill="none" stroke="#8B5CF6" stroke-width="2"/>
    <path d="M2 30 Q2 20 12 18 Q22 20 22 30" fill="none" stroke="#8B5CF6" stroke-width="2"/>
    <circle cx="30" cy="10" r="6" fill="none" stroke="#7C3AED" stroke-width="2"/>
    <path d="M20 30 Q20 20 30 18 Q40 20 40 30" fill="none" stroke="#7C3AED" stroke-width="2"/>
    <line x1="18" y1="14" x2="24" y2="14" stroke="#8B5CF6" stroke-width="1.5" stroke-dasharray="2,2"/>
  </g>
  <text x="160" y="100" text-anchor="middle" font-family="system-ui,sans-serif" font-size="52" font-weight="900" fill="white">v1.4</text>
  <text x="160" y="155" text-anchor="middle" font-family="system-ui,sans-serif" font-size="11" fill="#8B5CF6" fill-opacity="0.4" letter-spacing="3">REFERRALS</text>
</svg>