<svg xmlns="http://www.w3.org/2000/svg" viewBox="0 0 320 180">
  <defs>
    <radialGradient id="bg15" cx="50%" cy="30%" r="80%">
      <stop offset="0%" stop-color="#1E1A08"/>
      <stop offset="100%" stop-color="#0C0B06"/>
    </radialGradient>
    <linearGradient id="ac15" x1="0" y1="0" x2="1" y2="0">
      <stop offset="0%" stop-color="#EAB308"/>
      <stop offset="100%" stop-color="#CA8A04"/>
    </linearGradient>
    <radialGradient id="gl15" cx="50%" cy="20%" rx="40%" ry="30%">
      <stop offset="0%" stop-color="#EAB308" stop-opacity="0.11"/>
      <stop offset="100%" stop-color="#EAB308" stop-opacity="0"/>
    </radialGradient>
  </defs>
  <rect width="320" height="180" rx="16" fill="url(#bg15)" stroke="#EAB308" stroke-opacity="0.1"/>
  <rect y="0" width="320" height="4" rx="2" fill="url(#ac15)"/>
  <ellipse cx="160" cy="30" rx="140" ry="60" fill="url(#gl15)"/>
  <!-- Small dots constellation - scattered stars -->
  <circle cx="30" cy="30" r="1" fill="#EAB308" fill-opacity="0.2"/>
  <circle cx="58" cy="22" r="1.5" fill="#EAB308" fill-opacity="0.15"/>
  <circle cx="42" cy="50" r="0.8" fill="#CA8A04" fill-opacity="0.12"/>
  <circle cx="290" cy="35" r="1.2" fill="#EAB308" fill-opacity="0.18"/>
  <circle cx="305" cy="55" r="1" fill="#CA8A04" fill-opacity="0.1"/>
  <circle cx="275" cy="48" r="0.8" fill="#EAB308" fill-opacity="0.14"/>
  <circle cx="25" cy="135" r="1" fill="#EAB308" fill-opacity="0.1"/>
  <circle cx="305" cy="145" r="1.3" fill="#CA8A04" fill-opacity="0.08"/>
  <!-- Grid pattern right side -->
  <g stroke="#EAB308" stroke-opacity="0.03" stroke-width="0.5">
    <line x1="220" y1="120" x2="220" y2="170"/><line x1="240" y1="120" x2="240" y2="170"/>
    <line x1="260" y1="120" x2="260" y2="170"/><line x1="280" y1="120" x2="280" y2="170"/>
    <line x1="300" y1="120" x2="300" y2="170"/>
    <line x1="220" y1="130" x2="300" y2="130"/><line x1="220" y1="145" x2="300" y2="145"/>
    <line x1="220" y1="160" x2="300" y2="160"/>
  </g>
  <!-- Star/ticket icon -->
  <g transform="translate(252, 48)" opacity="0.2">
    <polygon points="20,2 24,14 37,14 27,22 30,34 20,27 10,34 13,22 3,14 16,14" fill="none" stroke="#EAB308" stroke-width="1.8"/>
    <rect x="4" y="24" width="32" height="14" rx="3" fill="none" stroke="#CA8A04" stroke-width="1.5" stroke-dasharray="3,2"/>
  </g>
  <!-- Floating circle -->
  <circle cx="40" cy="90" r="18" fill="none" stroke="#EAB308" stroke-opacity="0.05" stroke-width="1"/>
  <text x="160" y="100" text-anchor="middle" font-family="system-ui,sans-serif" font-size="52" font-weight="900" fill="white">v1.5</text>
  <text x="160" y="155" text-anchor="middle" font-family="system-ui,sans-serif" font-size="11" fill="#EAB308" fill-opacity="0.4" letter-spacing="3">PROMOS</text>
</svg>