<svg xmlns="http://www.w3.org/2000/svg" viewBox="0 0 320 180">
  <defs>
    <radialGradient id="bg21" cx="50%" cy="30%" r="80%">
      <stop offset="0%" stop-color="#081A1E"/>
      <stop offset="100%" stop-color="#060D0F"/>
    </radialGradient>
    <linearGradient id="ac21" x1="0" y1="0" x2="1" y2="0">
      <stop offset="0%" stop-color="#06B6D4"/>
      <stop offset="100%" stop-color="#0891B2"/>
    </linearGradient>
    <radialGradient id="gl21" cx="50%" cy="20%" rx="40%" ry="30%">
      <stop offset="0%" stop-color="#06B6D4" stop-opacity="0.10"/>
      <stop offset="100%" stop-color="#06B6D4" stop-opacity="0"/>
    </radialGradient>
  </defs>
  <rect width="320" height="180" rx="16" fill="url(#bg21)" stroke="#06B6D4" stroke-opacity="0.1"/>
  <rect y="0" width="320" height="4" rx="2" fill="url(#ac21)"/>
  <ellipse cx="160" cy="30" rx="140" ry="60" fill="url(#gl21)"/>
  <!-- Horizontal bars - leaderboard rows -->
  <rect x="20" y="130" width="60" height="3" rx="1.5" fill="#06B6D4" fill-opacity="0.04"/>
  <rect x="20" y="140" width="45" height="3" rx="1.5" fill="#06B6D4" fill-opacity="0.03"/>
  <rect x="20" y="150" width="35" height="3" rx="1.5" fill="#0891B2" fill-opacity="0.025"/>
  <!-- Curved paths -->
  <path d="M250 160 Q280 130 300 140 Q310 145 310 160" fill="none" stroke="#06B6D4" stroke-opacity="0.05" stroke-width="0.8"/>
  <!-- Floating circles -->
  <circle cx="40" cy="40" r="18" fill="none" stroke="#06B6D4" stroke-opacity="0.07" stroke-width="1"/>
  <circle cx="290" cy="140" r="24" fill="none" stroke="#0891B2" stroke-opacity="0.05" stroke-width="1"/>
  <!-- Dot constellation -->
  <circle cx="280" cy="35" r="1.2" fill="#06B6D4" fill-opacity="0.15"/>
  <circle cx="295" cy="28" r="1" fill="#06B6D4" fill-opacity="0.1"/>
  <circle cx="288" cy="48" r="0.8" fill="#0891B2" fill-opacity="0.12"/>
  <!-- Trophy icon -->
  <g transform="translate(252, 48)" opacity="0.2">
    <path d="M12 2 L28 2 L26 20 Q20 28 20 28 Q20 28 14 20 Z" fill="none" stroke="#06B6D4" stroke-width="2"/>
    <path d="M12 6 Q4 6 4 14 Q4 18 10 18" fill="none" stroke="#06B6D4" stroke-width="1.5"/>
    <path d="M28 6 Q36 6 36 14 Q36 18 30 18" fill="none" stroke="#06B6D4" stroke-width="1.5"/>
    <line x1="20" y1="28" x2="20" y2="34" stroke="#0891B2" stroke-width="2"/>
    <line x1="13" y1="34" x2="27" y2="34" stroke="#0891B2" stroke-width="2" stroke-linecap="round"/>
    <circle cx="20" cy="13" r="2" fill="#06B6D4" fill-opacity="0.4"/>
  </g>
  <text x="160" y="100" text-anchor="middle" font-family="system-ui,sans-serif" font-size="52" font-weight="900" fill="white">v2.1</text>
  <text x="160" y="155" text-anchor="middle" font-family="system-ui,sans-serif" font-size="11" fill="#06B6D4" fill-opacity="0.4" letter-spacing="3">LEADERBOARD</text>
</svg>