<svg xmlns="http://www.w3.org/2000/svg" viewBox="0 0 320 180">
  <defs>
    <radialGradient id="bg22" cx="50%" cy="30%" r="80%">
      <stop offset="0%" stop-color="#081E16"/>
      <stop offset="100%" stop-color="#060E0A"/>
    </radialGradient>
    <linearGradient id="ac22" x1="0" y1="0" x2="1" y2="0">
      <stop offset="0%" stop-color="#10B981"/>
      <stop offset="100%" stop-color="#047857"/>
    </linearGradient>
    <radialGradient id="gl22" cx="50%" cy="20%" rx="40%" ry="30%">
      <stop offset="0%" stop-color="#10B981" stop-opacity="0.10"/>
      <stop offset="100%" stop-color="#10B981" stop-opacity="0"/>
    </radialGradient>
  </defs>
  <rect width="320" height="180" rx="16" fill="url(#bg22)" stroke="#10B981" stroke-opacity="0.1"/>
  <rect y="0" width="320" height="4" rx="2" fill="url(#ac22)"/>
  <ellipse cx="160" cy="30" rx="140" ry="60" fill="url(#gl22)"/>
  <!-- Grid pattern bottom-left -->
  <g stroke="#10B981" stroke-opacity="0.035" stroke-width="0.5">
    <line x1="15" y1="110" x2="15" y2="170"/><line x1="30" y1="110" x2="30" y2="170"/>
    <line x1="45" y1="110" x2="45" y2="170"/><line x1="60" y1="110" x2="60" y2="170"/>
    <line x1="75" y1="110" x2="75" y2="170"/><line x1="90" y1="110" x2="90" y2="170"/>
    <line x1="15" y1="120" x2="90" y2="120"/><line x1="15" y1="135" x2="90" y2="135"/>
    <line x1="15" y1="150" x2="90" y2="150"/><line x1="15" y1="165" x2="90" y2="165"/>
  </g>
  <!-- Floating circles -->
  <circle cx="285" cy="45" r="16" fill="none" stroke="#10B981" stroke-opacity="0.07" stroke-width="1"/>
  <circle cx="40" cy="45" r="20" fill="none" stroke="#047857" stroke-opacity="0.05" stroke-width="1"/>
  <circle cx="300" cy="150" r="22" fill="none" stroke="#10B981" stroke-opacity="0.04" stroke-width="1"/>
  <!-- Dot constellation -->
  <circle cx="270" cy="80" r="1.2" fill="#10B981" fill-opacity="0.12"/>
  <circle cx="283" cy="75" r="1" fill="#047857" fill-opacity="0.1"/>
  <circle cx="260" cy="88" r="0.8" fill="#10B981" fill-opacity="0.08"/>
  <!-- Wallet icon -->
  <g transform="translate(250, 48)" opacity="0.2">
    <rect x="2" y="6" width="36" height="28" rx="4" fill="none" stroke="#10B981" stroke-width="2"/>
    <path d="M8 6 L8 4 Q8 0 14 0 L30 0 Q34 0 34 4 L34 6" fill="none" stroke="#047857" stroke-width="1.5"/>
    <rect x="26" y="16" width="12" height="10" rx="2" fill="none" stroke="#10B981" stroke-width="1.5"/>
    <circle cx="32" cy="21" r="2" fill="#10B981" fill-opacity="0.4"/>
  </g>
  <text x="160" y="100" text-anchor="middle" font-family="system-ui,sans-serif" font-size="52" font-weight="900" fill="white">v2.2</text>
  <text x="160" y="155" text-anchor="middle" font-family="system-ui,sans-serif" font-size="11" fill="#10B981" fill-opacity="0.4" letter-spacing="3">INVENTORY</text>
</svg>