<svg xmlns="http://www.w3.org/2000/svg" viewBox="0 0 320 180">
  <defs>
    <radialGradient id="bg23" cx="50%" cy="30%" r="80%">
      <stop offset="0%" stop-color="#220E1C"/>
      <stop offset="100%" stop-color="#0E060C"/>
    </radialGradient>
    <linearGradient id="ac23" x1="0" y1="0" x2="1" y2="0">
      <stop offset="0%" stop-color="#EC4899"/>
      <stop offset="100%" stop-color="#BE185D"/>
    </linearGradient>
    <radialGradient id="gl23" cx="50%" cy="20%" rx="40%" ry="30%">
      <stop offset="0%" stop-color="#EC4899" stop-opacity="0.11"/>
      <stop offset="100%" stop-color="#EC4899" stop-opacity="0"/>
    </radialGradient>
  </defs>
  <rect width="320" height="180" rx="16" fill="url(#bg23)" stroke="#EC4899" stroke-opacity="0.1"/>
  <rect y="0" width="320" height="4" rx="2" fill="url(#ac23)"/>
  <ellipse cx="160" cy="30" rx="140" ry="60" fill="url(#gl23)"/>
  <!-- Hexagon cluster -->
  <polygon points="40,28 48,23 56,28 56,38 48,43 40,38" fill="none" stroke="#EC4899" stroke-opacity="0.06" stroke-width="0.8"/>
  <polygon points="56,38 64,33 72,38 72,48 64,53 56,48" fill="none" stroke="#BE185D" stroke-opacity="0.05" stroke-width="0.8"/>
  <polygon points="40,48 48,43 56,48 56,58 48,63 40,58" fill="none" stroke="#EC4899" stroke-opacity="0.04" stroke-width="0.8"/>
  <!-- Curved arena paths -->
  <path d="M220 160 Q240 120 260 130 Q290 145 310 120" fill="none" stroke="#EC4899" stroke-opacity="0.04" stroke-width="0.8"/>
  <path d="M230 170 Q250 130 270 140 Q300 155 315 135" fill="none" stroke="#BE185D" stroke-opacity="0.03" stroke-width="0.8"/>
  <!-- Floating circles -->
  <circle cx="290" cy="42" r="15" fill="none" stroke="#EC4899" stroke-opacity="0.07" stroke-width="1"/>
  <circle cx="30" cy="140" r="18" fill="none" stroke="#BE185D" stroke-opacity="0.05" stroke-width="1"/>
  <!-- Dot constellation -->
  <circle cx="280" cy="90" r="1.2" fill="#EC4899" fill-opacity="0.14"/>
  <circle cx="295" cy="84" r="1" fill="#EC4899" fill-opacity="0.1"/>
  <circle cx="270" cy="100" r="0.8" fill="#BE185D" fill-opacity="0.08"/>
  <!-- Gamepad/arena icon -->
  <g transform="translate(248, 46)" opacity="0.2">
    <path d="M8 12 Q8 6 16 6 L28 6 Q36 6 36 12 L36 22 Q36 30 30 30 L26 30 L23 26 L21 26 L18 30 L14 30 Q8 30 8 22 Z" fill="none" stroke="#EC4899" stroke-width="2"/>
    <line x1="15" y1="16" x2="21" y2="16" stroke="#EC4899" stroke-width="1.5"/>
    <line x1="18" y1="13" x2="18" y2="19" stroke="#EC4899" stroke-width="1.5"/>
    <circle cx="28" cy="14" r="1.5" fill="#BE185D" fill-opacity="0.5"/>
    <circle cx="31" cy="17" r="1.5" fill="#EC4899" fill-opacity="0.5"/>
    <!-- Arena ring -->
    <circle cx="22" cy="18" r="18" fill="none" stroke="#EC4899" stroke-width="0.8" stroke-dasharray="4,6"/>
  </g>
  <text x="160" y="100" text-anchor="middle" font-family="system-ui,sans-serif" font-size="52" font-weight="900" fill="white">v2.3</text>
  <text x="160" y="155" text-anchor="middle" font-family="system-ui,sans-serif" font-size="11" fill="#EC4899" fill-opacity="0.4" letter-spacing="3">CRASH ARENA</text>
</svg>