<svg xmlns="http://www.w3.org/2000/svg" viewBox="0 0 320 180">
  <defs>
    <radialGradient id="bg24" cx="50%" cy="30%" r="80%">
      <stop offset="0%" stop-color="#141820"/>
      <stop offset="100%" stop-color="#0A0C10"/>
    </radialGradient>
    <linearGradient id="ac24" x1="0" y1="0" x2="1" y2="0">
      <stop offset="0%" stop-color="#94A3B8"/>
      <stop offset="100%" stop-color="#64748B"/>
    </linearGradient>
    <radialGradient id="gl24" cx="50%" cy="20%" rx="40%" ry="30%">
      <stop offset="0%" stop-color="#94A3B8" stop-opacity="0.08"/>
      <stop offset="100%" stop-color="#94A3B8" stop-opacity="0"/>
    </radialGradient>
  </defs>
  <rect width="320" height="180" rx="16" fill="url(#bg24)" stroke="#94A3B8" stroke-opacity="0.1"/>
  <rect y="0" width="320" height="4" rx="2" fill="url(#ac24)"/>
  <ellipse cx="160" cy="30" rx="140" ry="60" fill="url(#gl24)"/>
  <!-- Fine grid pattern - precision/polish feel -->
  <g stroke="#94A3B8" stroke-opacity="0.03" stroke-width="0.3">
    <line x1="20" y1="20" x2="20" y2="170"/><line x1="35" y1="20" x2="35" y2="170"/>
    <line x1="50" y1="20" x2="50" y2="170"/><line x1="65" y1="20" x2="65" y2="170"/>
    <line x1="80" y1="20" x2="80" y2="170"/><line x1="95" y1="20" x2="95" y2="170"/>
    <line x1="20" y1="30" x2="95" y2="30"/><line x1="20" y1="50" x2="95" y2="50"/>
    <line x1="20" y1="70" x2="95" y2="70"/><line x1="20" y1="90" x2="95" y2="90"/>
    <line x1="20" y1="110" x2="95" y2="110"/><line x1="20" y1="130" x2="95" y2="130"/>
    <line x1="20" y1="150" x2="95" y2="150"/>
  </g>
  <!-- Clean floating circles -->
  <circle cx="290" cy="40" r="18" fill="none" stroke="#94A3B8" stroke-opacity="0.06" stroke-width="0.8"/>
  <circle cx="280" cy="145" r="24" fill="none" stroke="#64748B" stroke-opacity="0.04" stroke-width="0.8"/>
  <!-- Subtle diagonal lines -->
  <line x1="240" y1="130" x2="280" y2="170" stroke="#94A3B8" stroke-opacity="0.03" stroke-width="0.5"/>
  <line x1="250" y1="130" x2="290" y2="170" stroke="#64748B" stroke-opacity="0.025" stroke-width="0.5"/>
  <!-- Sparkle icon -->
  <g transform="translate(255, 48)" opacity="0.2">
    <!-- Main sparkle -->
    <path d="M20 0 L22 14 L36 18 L22 22 L20 36 L18 22 L4 18 L18 14 Z" fill="none" stroke="#94A3B8" stroke-width="1.5"/>
    <!-- Small sparkle -->
    <path d="M6 4 L7 9 L12 10 L7 11 L6 16 L5 11 L0 10 L5 9 Z" fill="#94A3B8" fill-opacity="0.3"/>
    <!-- Tiny sparkle -->
    <path d="M34 28 L35 31 L38 32 L35 33 L34 36 L33 33 L30 32 L33 31 Z" fill="#64748B" fill-opacity="0.25"/>
  </g>
  <!-- Dot accents -->
  <circle cx="55" cy="42" r="1" fill="#94A3B8" fill-opacity="0.1"/>
  <circle cx="70" cy="38" r="0.8" fill="#64748B" fill-opacity="0.08"/>
  <text x="160" y="100" text-anchor="middle" font-family="system-ui,sans-serif" font-size="52" font-weight="900" fill="white">v2.4</text>
  <text x="160" y="155" text-anchor="middle" font-family="system-ui,sans-serif" font-size="11" fill="#94A3B8" fill-opacity="0.4" letter-spacing="3">POLISH</text>
</svg>