<svg xmlns="http://www.w3.org/2000/svg" viewBox="0 0 320 180">
  <defs>
    <linearGradient id="bg26" x1="0%" y1="0%" x2="100%" y2="100%">
      <stop offset="0%" stop-color="#0F1729"/>
      <stop offset="100%" stop-color="#0A1020"/>
    </linearGradient>
    <linearGradient id="ac26" x1="0%" y1="0%" x2="100%" y2="0%">
      <stop offset="0%" stop-color="#3B82F6"/>
      <stop offset="50%" stop-color="#06B6D4"/>
      <stop offset="100%" stop-color="#10B981"/>
    </linearGradient>
    <linearGradient id="glow26" x1="50%" y1="0%" x2="50%" y2="100%">
      <stop offset="0%" stop-color="rgba(59,130,246,0.15)"/>
      <stop offset="100%" stop-color="transparent"/>
    </linearGradient>
  </defs>
  <rect width="320" height="180" rx="16" fill="url(#bg26)"/>
  <rect x="1" y="1" width="318" height="178" rx="15" fill="none" stroke="rgba(59,130,246,0.1)" stroke-width="1"/>
  <rect x="0" y="0" width="320" height="4" rx="2" fill="url(#ac26)"/>
  <!-- Blue grid lines -->
  <g stroke="rgba(59,130,246,0.12)" stroke-width="0.8">
    <line x1="40" y1="30" x2="40" y2="150"/><line x1="80" y1="30" x2="80" y2="150"/>
    <line x1="120" y1="30" x2="120" y2="150"/><line x1="160" y1="30" x2="160" y2="150"/>
    <line x1="200" y1="30" x2="200" y2="150"/><line x1="240" y1="30" x2="240" y2="150"/>
    <line x1="280" y1="30" x2="280" y2="150"/>
    <line x1="30" y1="50" x2="290" y2="50"/><line x1="30" y1="80" x2="290" y2="80"/>
    <line x1="30" y1="110" x2="290" y2="110"/><line x1="30" y1="140" x2="290" y2="140"/>
  </g>
  <!-- Glow -->
  <ellipse cx="160" cy="50" rx="120" ry="60" fill="url(#glow26)"/>
  <!-- Rocket icon -->
  <text x="250" y="100" font-size="32" text-anchor="middle" fill="#3B82F6" opacity="0.6">🚀</text>
  <text x="160" y="100" font-family="system-ui,sans-serif" font-size="52" font-weight="900" fill="#fff" text-anchor="middle" letter-spacing="-2">2.6</text>
  <text x="160" y="155" font-family="system-ui,sans-serif" font-size="11" fill="rgba(255,255,255,0.25)" text-anchor="middle" letter-spacing="3">CRASH UPDATE</text>
</svg>