<svg xmlns="http://www.w3.org/2000/svg" viewBox="0 0 320 180">
  <defs>
    <radialGradient id="bg26" cx="50%" cy="30%" r="80%">
      <stop offset="0%" stop-color="#0C1528"/>
      <stop offset="100%" stop-color="#060A12"/>
    </radialGradient>
    <linearGradient id="ac26" x1="0" y1="0" x2="1" y2="0">
      <stop offset="0%" stop-color="#3B82F6"/>
      <stop offset="100%" stop-color="#06B6D4"/>
    </linearGradient>
    <radialGradient id="gl26" cx="50%" cy="20%" rx="42%" ry="32%">
      <stop offset="0%" stop-color="#3B82F6" stop-opacity="0.11"/>
      <stop offset="100%" stop-color="#06B6D4" stop-opacity="0"/>
    </radialGradient>
  </defs>
  <rect width="320" height="180" rx="16" fill="url(#bg26)" stroke="#3B82F6" stroke-opacity="0.1"/>
  <rect y="0" width="320" height="4" rx="2" fill="url(#ac26)"/>
  <ellipse cx="160" cy="30" rx="140" ry="60" fill="url(#gl26)"/>
  <!-- Grid pattern - full background subtle -->
  <g stroke="#3B82F6" stroke-opacity="0.025" stroke-width="0.4">
    <line x1="20" y1="20" x2="20" y2="170"/><line x1="44" y1="20" x2="44" y2="170"/>
    <line x1="68" y1="20" x2="68" y2="170"/><line x1="92" y1="20" x2="92" y2="170"/>
    <line x1="20" y1="30" x2="92" y2="30"/><line x1="20" y1="54" x2="92" y2="54"/>
    <line x1="20" y1="78" x2="92" y2="78"/><line x1="20" y1="102" x2="92" y2="102"/>
    <line x1="20" y1="126" x2="92" y2="126"/><line x1="20" y1="150" x2="92" y2="150"/>
  </g>
  <!-- Diagonal lines -->
  <line x1="240" y1="100" x2="310" y2="170" stroke="#06B6D4" stroke-opacity="0.04" stroke-width="0.6"/>
  <line x1="250" y1="100" x2="315" y2="165" stroke="#3B82F6" stroke-opacity="0.03" stroke-width="0.6"/>
  <line x1="260" y1="100" x2="315" y2="155" stroke="#06B6D4" stroke-opacity="0.025" stroke-width="0.6"/>
  <!-- Floating circles -->
  <circle cx="290" cy="40" r="18" fill="none" stroke="#3B82F6" stroke-opacity="0.07" stroke-width="1"/>
  <circle cx="40" cy="140" r="22" fill="none" stroke="#06B6D4" stroke-opacity="0.05" stroke-width="1"/>
  <circle cx="300" cy="150" r="12" fill="none" stroke="#3B82F6" stroke-opacity="0.04" stroke-width="1"/>
  <!-- Dot constellation -->
  <circle cx="280" cy="80" r="1.2" fill="#3B82F6" fill-opacity="0.14"/>
  <circle cx="295" cy="74" r="1" fill="#06B6D4" fill-opacity="0.1"/>
  <circle cx="268" cy="88" r="0.8" fill="#3B82F6" fill-opacity="0.08"/>
  <!-- Rocket + grid icon -->
  <g transform="translate(248, 42)" opacity="0.2">
    <!-- Mini rocket -->
    <path d="M14 2 L18 12 L14 28 L10 12 Z" fill="none" stroke="#3B82F6" stroke-width="1.8"/>
    <path d="M8 20 L5 26 L10 23 Z" fill="#3B82F6" fill-opacity="0.3"/>
    <path d="M20 20 L23 26 L18 23 Z" fill="#3B82F6" fill-opacity="0.3"/>
    <circle cx="14" cy="11" r="2.5" fill="#060A12"/>
    <path d="M11 28 L14 33 L17 28" fill="none" stroke="#06B6D4" stroke-width="1.5" stroke-linecap="round"/>
    <!-- Grid dots -->
    <circle cx="30" cy="8" r="1.5" fill="#06B6D4" fill-opacity="0.4"/>
    <circle cx="36" cy="8" r="1.5" fill="#06B6D4" fill-opacity="0.4"/>
    <circle cx="42" cy="8" r="1.5" fill="#06B6D4" fill-opacity="0.4"/>
    <circle cx="30" cy="14" r="1.5" fill="#06B6D4" fill-opacity="0.4"/>
    <circle cx="36" cy="14" r="1.5" fill="#06B6D4" fill-opacity="0.4"/>
    <circle cx="42" cy="14" r="1.5" fill="#06B6D4" fill-opacity="0.4"/>
    <circle cx="30" cy="20" r="1.5" fill="#06B6D4" fill-opacity="0.4"/>
    <circle cx="36" cy="20" r="1.5" fill="#06B6D4" fill-opacity="0.4"/>
    <circle cx="42" cy="20" r="1.5" fill="#06B6D4" fill-opacity="0.4"/>
  </g>
  <text x="160" y="100" text-anchor="middle" font-family="system-ui,sans-serif" font-size="52" font-weight="900" fill="white">v2.6</text>
  <text x="160" y="155" text-anchor="middle" font-family="system-ui,sans-serif" font-size="11" fill="#3B82F6" fill-opacity="0.4" letter-spacing="3">CRASH UPDATE</text>
</svg>