<svg xmlns="http://www.w3.org/2000/svg" viewBox="0 0 320 180">
  <defs>
    <radialGradient id="bg261" cx="50%" cy="30%" r="80%">
      <stop offset="0%" stop-color="#0C1528"/>
      <stop offset="100%" stop-color="#060A12"/>
    </radialGradient>
    <linearGradient id="ac261" x1="0" y1="0" x2="1" y2="0">
      <stop offset="0%" stop-color="#10B981"/>
      <stop offset="100%" stop-color="#34D399"/>
    </linearGradient>
    <radialGradient id="gl261" cx="50%" cy="20%" rx="42%" ry="32%">
      <stop offset="0%" stop-color="#10B981" stop-opacity="0.11"/>
      <stop offset="100%" stop-color="#34D399" stop-opacity="0"/>
    </radialGradient>
  </defs>
  <rect width="320" height="180" rx="16" fill="url(#bg261)" stroke="#10B981" stroke-opacity="0.1"/>
  <rect y="0" width="320" height="4" rx="2" fill="url(#ac261)"/>
  <ellipse cx="160" cy="30" rx="140" ry="60" fill="url(#gl261)"/>
  <!-- Wrench icon -->
  <g transform="translate(245, 35)" opacity="0.2">
    <path d="M14.7 6.3a1 1 0 0 0 0 1.4l1.6 1.6a1 1 0 0 0 1.4 0l3.77-3.77a6 6 0 0 1-7.94 7.94l-6.91 6.91a2.12 2.12 0 0 1-3-3l6.91-6.91a6 6 0 0 1 7.94-7.94l-3.76 3.76z" fill="none" stroke="#10B981" stroke-width="2"/>
  </g>
  <!-- Checkmark circles -->
  <g transform="translate(250, 80)" opacity="0.15">
    <circle cx="10" cy="10" r="9" fill="none" stroke="#34D399" stroke-width="1.5"/>
    <path d="M6 10l3 3 5-6" fill="none" stroke="#34D399" stroke-width="1.5" stroke-linecap="round" stroke-linejoin="round"/>
  </g>
  <g transform="translate(270, 105)" opacity="0.1">
    <circle cx="8" cy="8" r="7" fill="none" stroke="#10B981" stroke-width="1.2"/>
    <path d="M5 8l2.5 2.5 4-5" fill="none" stroke="#10B981" stroke-width="1.2" stroke-linecap="round" stroke-linejoin="round"/>
  </g>
  <!-- Floating circles -->
  <circle cx="40" cy="140" r="22" fill="none" stroke="#10B981" stroke-opacity="0.05" stroke-width="1"/>
  <circle cx="290" cy="150" r="12" fill="none" stroke="#34D399" stroke-opacity="0.04" stroke-width="1"/>
  <!-- Dot constellation -->
  <circle cx="280" cy="60" r="1.2" fill="#10B981" fill-opacity="0.14"/>
  <circle cx="295" cy="54" r="1" fill="#34D399" fill-opacity="0.1"/>
  <circle cx="268" cy="68" r="0.8" fill="#10B981" fill-opacity="0.08"/>
  <text x="160" y="100" text-anchor="middle" font-family="system-ui,sans-serif" font-size="48" font-weight="900" fill="white">v2.6.1</text>
  <text x="160" y="155" text-anchor="middle" font-family="system-ui,sans-serif" font-size="11" fill="#10B981" fill-opacity="0.5" letter-spacing="3">BUG FIX</text>
</svg>
