<svg xmlns="http://www.w3.org/2000/svg" viewBox="0 0 320 180">
  <defs>
    <radialGradient id="bg310" cx="50%" cy="30%" r="80%">
      <stop offset="0%" stop-color="#1a1f2e"/>
      <stop offset="100%" stop-color="#0f1319"/>
    </radialGradient>
    <linearGradient id="ac310" x1="0" y1="0" x2="1" y2="0">
      <stop offset="0%" stop-color="#f59e0b"/>
      <stop offset="100%" stop-color="#ef4444"/>
    </linearGradient>
    <radialGradient id="gl310" cx="50%" cy="20%" rx="42%" ry="32%">
      <stop offset="0%" stop-color="#f59e0b" stop-opacity="0.12"/>
      <stop offset="100%" stop-color="#ef4444" stop-opacity="0"/>
    </radialGradient>
  </defs>
  <rect width="320" height="180" rx="16" fill="url(#bg310)"/>
  <rect y="0" width="320" height="3" rx="1.5" fill="url(#ac310)"/>
  <ellipse cx="160" cy="30" rx="140" ry="60" fill="url(#gl310)"/>
  <circle cx="40" cy="35" r="1.5" fill="#f59e0b" fill-opacity="0.2"/>
  <circle cx="280" cy="45" r="1" fill="#ef4444" fill-opacity="0.15"/>
  <circle cx="55" cy="145" r="1.2" fill="#f59e0b" fill-opacity="0.12"/>
  <circle cx="265" cy="140" r="0.8" fill="#ef4444" fill-opacity="0.1"/>
  <circle cx="160" cy="28" r="22" fill="none" stroke="#f59e0b" stroke-opacity="0.06" stroke-width="1"/>
  <!-- Title -->
  <text x="160" y="62" text-anchor="middle" font-family="system-ui,sans-serif" font-weight="900" font-size="44" fill="white">v3.1</text>
  <text x="160" y="84" text-anchor="middle" font-family="system-ui,sans-serif" font-weight="700" font-size="11" fill="rgba(255,255,255,0.4)" letter-spacing="3">BALANCE UPDATE</text>
  <!-- Scale icon -->
  <circle cx="160" cy="118" r="16" fill="#f59e0b" fill-opacity="0.15"/>
  <path d="M152 118h16 M160 110v16 M154 114l-2 6h4l-2-6 M166 114l-2 6h4l-2-6" fill="none" stroke="#f59e0b" stroke-width="2" stroke-linecap="round" stroke-linejoin="round"/>
  <text x="160" y="155" text-anchor="middle" font-family="system-ui,sans-serif" font-weight="900" font-size="13" fill="#f59e0b" fill-opacity="0.8">BALANCE & FAIRNESS</text>
</svg>
